<svg width="1512" height="982" viewBox="0 0 1512 982" fill="none" xmlns="http://www.w3.org/2000/svg">
<g clip-path="url(#clip0_204_684)">
<rect width="1512" height="982" fill="#050923"/>
<g filter="url(#filter0_f_204_684)">
<path d="M738.343 1154.66C618.863 1059.68 376.486 844.573 285.239 677.225C300.81 500.431 657.583 395.372 788.636 406.915C919.688 418.458 1271.48 595.53 1255.91 772.324C1164.46 915.631 873.796 1087.1 738.343 1154.66Z" fill="#050923"/>
</g>
<g opacity="0.3" filter="url(#filter1_f_204_684)">
<path fill-rule="evenodd" clip-rule="evenodd" d="M-0.940849 625.65L104.323 363.144L116.302 351.867L135.036 349.472L134.644 362.106L191.564 229.439L216.367 222.359L266.736 249.881L226.563 566.76L227.93 579.06L271.557 385.608L280.645 374.592L287.458 352.423L297.247 346.996L305.282 369.949L313.062 372.895L323.999 499.42L330.964 500.494L332 635.999L-0.940849 625.65Z" fill="url(#paint0_linear_204_684)"/>
<path opacity="0.5" fill-rule="evenodd" clip-rule="evenodd" d="M142.954 630.122L145.929 628.222L172.543 588.047L198.493 462.297L214.717 443.083L208.397 475.752L194.486 591.21L193.391 626.422L219.275 463.536L243.427 343.156L253.021 353.442L226.923 563.922L228.511 577.124L214.028 632.332L142.954 630.122Z" fill="#6763FA"/>
<path opacity="0.5" fill-rule="evenodd" clip-rule="evenodd" d="M237.356 632.31L275.549 529.209L301.393 373.159L302.459 397.384L293.829 481.211L286.523 480.984L288.006 489.588L291.497 503.863L296.134 509.466L302.886 455.01L320.769 462.047L324 499.42L322.925 533.984L326.758 635.837L237.356 632.31Z" fill="#6763FA"/>
<path fill-rule="evenodd" clip-rule="evenodd" d="M242.332 236.546L219.277 463.537L208.399 475.753L225.188 360.864L221.631 359.659L172.545 588.047L145.931 628.222L75.1144 627.078L131.653 440.319L65.4736 627.714L-0.939671 625.65L104.324 363.144L116.303 351.867L135.038 349.473L98.8529 482.48L137.853 357.055L191.566 229.439L216.368 222.359L242.332 236.546Z" fill="url(#paint1_linear_204_684)"/>
<path fill-rule="evenodd" clip-rule="evenodd" d="M297.25 346.996L301.395 373.158L275.55 529.208L237.357 632.309L214.031 632.332L287.46 352.423L297.25 346.996Z" fill="#251369"/>
<path fill-rule="evenodd" clip-rule="evenodd" d="M305.281 369.949L291.495 503.863L296.131 509.465L313.061 372.896L305.281 369.949Z" fill="#251369"/>
<path fill-rule="evenodd" clip-rule="evenodd" d="M323.998 499.42L323.519 514.832L322.924 533.983L330.964 500.494L323.998 499.42Z" fill="#251369"/>
<path fill-rule="evenodd" clip-rule="evenodd" d="M259.594 245.98L261.117 251.326L227.162 385.894L249.883 313.689L255.738 299.387L245.176 338.879L227.502 426.508L214.029 632.333L249.911 382.597L266.736 249.882L259.594 245.98Z" fill="#E099FF" fill-opacity="0.61"/>
<path fill-rule="evenodd" clip-rule="evenodd" d="M194.802 631.734L204.885 560.58L201.542 541.53L190.139 506.17L187.265 519.552L196.295 532.995L203.732 560.178L186.54 621.96L172.81 631.05L194.802 631.734Z" fill="#E4A6FF"/>
<path fill-rule="evenodd" clip-rule="evenodd" d="M253.644 633.563L281.177 573.238L298.7 553.551L299.518 527.24L322.622 483.475L323.998 499.419L317.097 538.549L302.617 554.145L283.597 575.078L266.712 625.858L274.898 629.852L321.274 587.052L331.417 559.864L331.494 569.842L324.737 588.209L281.023 634.414L253.644 633.563Z" fill="#E4A6FF"/>
<path fill-rule="evenodd" clip-rule="evenodd" d="M286.509 571.875L286.09 585.356L288.337 614.952L286.888 618.788L280.291 624.875L286.108 611.574L285.446 583.5L283.28 576.038L283.365 573.227L286.509 571.875Z" fill="#E4A6FF"/>
<path fill-rule="evenodd" clip-rule="evenodd" d="M275.882 588.784L280.119 593.204L286.866 595.578L286.759 599.037L284.122 595.724L275.711 594.287L275.882 588.784Z" fill="#E4A6FF"/>
<path fill-rule="evenodd" clip-rule="evenodd" d="M201.973 543.978L202.229 535.749L217.779 511.704L222.29 506.119L227.123 492.46L212.482 513.251L202.278 534.172L197.913 535.193L201.973 543.978Z" fill="#E4A6FF"/>
<path fill-rule="evenodd" clip-rule="evenodd" d="M235.198 232.649L189.409 450.604L132.331 455.911L175.608 306.532L151.962 340.312L146.151 337.334L191.563 229.439L216.366 222.359L235.198 232.649Z" fill="url(#paint2_linear_204_684)"/>
<path fill-rule="evenodd" clip-rule="evenodd" d="M235.198 232.649L189.409 450.604L132.331 455.911L175.608 306.532L151.962 340.312L146.151 337.334L191.563 229.439L216.366 222.359L235.198 232.649Z" fill="url(#paint3_linear_204_684)" fill-opacity="0.2"/>
<path fill-rule="evenodd" clip-rule="evenodd" d="M162.151 472.146L146.217 525.189L103.203 534.292L121.74 473.06L162.151 472.146Z" fill="#6763FA"/>
<path fill-rule="evenodd" clip-rule="evenodd" d="M116.948 449.013L104.538 491.368L100.291 492.466L107.269 455.41L101.448 455.229L97.042 470.38L83.5044 469.701L101.823 407.987L118.835 409.028L110.501 439.662L117.875 439.891L116.948 449.013Z" fill="#6763FA"/>
<path fill-rule="evenodd" clip-rule="evenodd" d="M72.1719 552.794L65.2243 579.371L57.7965 579.14L65.4013 552.584L72.1719 552.794Z" fill="#6763FA"/>
<path fill-rule="evenodd" clip-rule="evenodd" d="M135.116 610.189L135.461 599.09L122.837 597.259L118.873 612.181L135.116 610.189Z" fill="#6763FA"/>
<path fill-rule="evenodd" clip-rule="evenodd" d="M275.549 529.208L291.389 433.567L285.025 431.325L267.583 527.515L263.652 527.393L272.83 471.302L256.406 470.791L232.285 559.755L262.242 558.704L275.549 529.208Z" fill="url(#paint4_linear_204_684)"/>
<path fill-rule="evenodd" clip-rule="evenodd" d="M246.412 566.057L238.841 584.49L226.679 584.112L236.472 566.889L246.412 566.057Z" fill="#6763FA"/>
<path fill-rule="evenodd" clip-rule="evenodd" d="M224.035 526.162L209.615 524.329L204.171 530.292L223.983 527.842L224.035 526.162Z" fill="#E4A6FF"/>
<path fill-rule="evenodd" clip-rule="evenodd" d="M187.268 519.552L145.952 533.758L87.6141 585.795L77.1325 594.698L-0.939081 625.65L4.7109 611.556L68.8045 595.579L79.7792 589.603L88.9003 581.545L146.027 531.359L184.13 515.506L190.143 506.17L187.268 519.552Z" fill="#E4A6FF"/>
<path fill-rule="evenodd" clip-rule="evenodd" d="M174.59 523.912L170.984 520.976L161.725 524.828L166.323 526.755L174.59 523.912Z" fill="#6763FA"/>
<path fill-rule="evenodd" clip-rule="evenodd" d="M163.508 527.092L161.685 526.19L158.836 527.239L160.41 528.207L163.508 527.092Z" fill="#6763FA"/>
<path fill-rule="evenodd" clip-rule="evenodd" d="M222.101 527.408L222.13 526.473L212.165 525.217L212.073 528.175L222.101 527.408Z" fill="#6763FA"/>
<path fill-rule="evenodd" clip-rule="evenodd" d="M211.351 528.506L210.898 527.254L208.379 527.357L209.84 528.708L211.351 528.506Z" fill="#6763FA"/>
<path fill-rule="evenodd" clip-rule="evenodd" d="M224.321 560.692L218.869 558.37L218.782 561.179L224.247 563.056L224.321 560.692Z" fill="#6763FA"/>
<path fill-rule="evenodd" clip-rule="evenodd" d="M222.849 564.333L220.122 562.926L220.061 564.906L222.806 565.708L222.849 564.333Z" fill="#6763FA"/>
<path fill-rule="evenodd" clip-rule="evenodd" d="M262.608 631.221L266.827 622.187L259.804 620.063L255.296 629.942L262.608 631.221Z" fill="#6763FA"/>
<path fill-rule="evenodd" clip-rule="evenodd" d="M265.261 619.739L265.425 614.457L263.677 614.403L261.984 619.637L265.261 619.739Z" fill="#6763FA"/>
<path fill-rule="evenodd" clip-rule="evenodd" d="M308.949 603.838L306.727 602.631L298.265 609.822L301.557 611.833L308.949 603.838Z" fill="#6763FA"/>
<path fill-rule="evenodd" clip-rule="evenodd" d="M301.177 612.262L298.952 611.128L298.197 611.949L300.644 612.98L301.177 612.262Z" fill="#6763FA"/>
<path fill-rule="evenodd" clip-rule="evenodd" d="M300.249 538.926L300.588 528.031L317.929 533.828L316.285 539.424L300.249 538.926Z" fill="#6763FA"/>
<path fill-rule="evenodd" clip-rule="evenodd" d="M304.458 540.653L315.577 540.188L314.347 541.511L304.428 541.59L304.458 540.653Z" fill="#6763FA"/>
</g>
<g opacity="0.3" filter="url(#filter2_f_204_684)">
<path fill-rule="evenodd" clip-rule="evenodd" d="M1517.5 633.724L1405.01 418.108L1392.06 408.906L1371.67 407.086L1372 417.502L1311.09 308.562L1284.14 302.928L1229.05 326.039L1270.2 587.031L1268.61 597.186L1222.69 438.01L1212.88 429L1205.64 410.774L1195.02 406.379L1186.08 425.373L1177.59 427.867L1164.63 532.299L1157.04 533.243L1154.79 644.999L1517.5 633.724Z" fill="url(#paint5_linear_204_684)"/>
<path opacity="0.5" fill-rule="evenodd" clip-rule="evenodd" d="M1360.74 638.597L1357.52 637.054L1328.86 604.142L1301.63 500.652L1284.12 484.941L1290.73 511.83L1304.93 606.931L1305.84 635.96L1278.99 501.845L1253.67 402.769L1243.14 411.33L1269.83 584.694L1267.99 595.595L1283.31 641.004L1360.74 638.597Z" fill="#6763FA"/>
<path opacity="0.5" fill-rule="evenodd" clip-rule="evenodd" d="M1257.91 641.178L1217.16 556.467L1190.29 427.989L1188.93 447.976L1197.64 517.035L1205.6 516.787L1203.91 523.895L1199.99 535.697L1194.9 540.355L1187.99 495.502L1168.46 501.452L1164.63 532.3L1165.52 560.795L1160.5 644.822L1257.91 641.178Z" fill="#6763FA"/>
<path fill-rule="evenodd" clip-rule="evenodd" d="M1255.74 314.841L1278.98 501.845L1290.73 511.83L1273.39 417.222L1277.27 416.199L1328.86 604.142L1357.51 637.055L1434.65 635.528L1374.61 481.977L1445.15 635.973L1517.5 633.724L1405.01 418.108L1392.06 408.906L1371.67 407.086L1409.99 516.476L1368.54 413.362L1311.09 308.562L1284.14 302.928L1255.74 314.841Z" fill="url(#paint6_linear_204_684)"/>
<path fill-rule="evenodd" clip-rule="evenodd" d="M1195.02 406.379L1190.29 427.988L1217.15 556.466L1257.9 641.178L1283.31 641.004L1205.64 410.774L1195.02 406.379Z" fill="#251369"/>
<path fill-rule="evenodd" clip-rule="evenodd" d="M1186.08 425.374L1200 535.696L1194.9 540.354L1177.59 427.867L1186.08 425.374Z" fill="#251369"/>
<path fill-rule="evenodd" clip-rule="evenodd" d="M1164.63 532.299L1165.03 545.006L1165.52 560.794L1157.04 533.243L1164.63 532.299Z" fill="#251369"/>
<path fill-rule="evenodd" clip-rule="evenodd" d="M1236.86 322.763L1235.16 327.184L1271.03 437.88L1246.88 378.521L1240.62 366.775L1251.8 399.256L1270.33 471.376L1283.31 641.005L1246.29 435.348L1229.05 326.039L1236.86 322.763Z" fill="#E099FF" fill-opacity="0.61"/>
<path fill-rule="evenodd" clip-rule="evenodd" d="M1304.26 640.353L1293.86 581.756L1297.66 566.019L1310.37 536.764L1313.39 547.777L1303.44 558.937L1295.12 581.415L1313.34 632.224L1328.22 639.608L1304.26 640.353Z" fill="#E4A6FF"/>
<path fill-rule="evenodd" clip-rule="evenodd" d="M1240.15 642.345L1210.66 592.823L1191.74 576.732L1191.07 555.04L1166.26 519.138L1164.63 532.299L1171.83 564.511L1187.47 577.254L1208.01 594.361L1225.98 636.099L1217.04 639.46L1166.88 604.545L1156.06 582.208L1155.89 590.437L1163.1 605.528L1210.33 643.272L1240.15 642.345Z" fill="#E4A6FF"/>
<path fill-rule="evenodd" clip-rule="evenodd" d="M1204.87 591.743L1205.21 602.857L1202.52 627.283L1204.07 630.434L1211.2 635.4L1204.98 624.479L1205.93 601.321L1208.35 595.149L1208.28 592.833L1204.87 591.743Z" fill="#E4A6FF"/>
<path fill-rule="evenodd" clip-rule="evenodd" d="M1216.3 605.6L1211.65 609.28L1204.28 611.293L1204.37 614.145L1207.27 611.391L1216.44 610.137L1216.3 605.6Z" fill="#E4A6FF"/>
<path fill-rule="evenodd" clip-rule="evenodd" d="M1297.17 568.041L1296.96 561.257L1280.22 541.556L1275.35 536.987L1270.2 525.763L1285.98 542.788L1296.92 559.957L1301.66 560.763L1297.17 568.041Z" fill="#E4A6FF"/>
<path fill-rule="evenodd" clip-rule="evenodd" d="M1263.54 311.568L1311.62 490.935L1373.74 494.842L1327.84 372.008L1353.31 399.671L1359.67 397.167L1311.1 308.562L1284.14 302.928L1263.54 311.568Z" fill="url(#paint7_linear_204_684)"/>
<path fill-rule="evenodd" clip-rule="evenodd" d="M1263.54 311.568L1311.62 490.935L1373.74 494.842L1327.84 372.008L1353.31 399.671L1359.67 397.167L1311.1 308.562L1284.14 302.928L1263.54 311.568Z" fill="url(#paint8_linear_204_684)" fill-opacity="0.2"/>
<path fill-rule="evenodd" clip-rule="evenodd" d="M1341.13 508.476L1358.05 552.088L1404.82 559.241L1385.14 508.896L1341.13 508.476Z" fill="#6763FA"/>
<path fill-rule="evenodd" clip-rule="evenodd" d="M1390.55 489.026L1403.72 523.853L1408.34 524.724L1401.04 494.222L1407.38 494.024L1412.06 506.483L1426.81 505.811L1407.37 455.068L1388.83 456.066L1397.65 481.261L1389.62 481.511L1390.55 489.026Z" fill="#6763FA"/>
<path fill-rule="evenodd" clip-rule="evenodd" d="M1438.47 574.244L1445.82 596.104L1453.91 595.852L1445.84 574.015L1438.47 574.244Z" fill="#6763FA"/>
<path fill-rule="evenodd" clip-rule="evenodd" d="M1369.44 622.094L1369.16 612.943L1382.92 611.33L1387.11 623.603L1369.44 622.094Z" fill="#6763FA"/>
<path fill-rule="evenodd" clip-rule="evenodd" d="M1217.16 556.466L1200.69 477.724L1207.64 475.822L1225.85 555.004L1230.13 554.871L1220.59 508.69L1238.49 508.134L1264.02 581.302L1231.41 580.681L1217.16 556.466Z" fill="url(#paint9_linear_204_684)"/>
<path fill-rule="evenodd" clip-rule="evenodd" d="M1248.59 586.615L1256.68 601.754L1269.93 601.342L1259.41 587.219L1248.59 586.615Z" fill="#6763FA"/>
<path fill-rule="evenodd" clip-rule="evenodd" d="M1273.29 553.53L1289.01 551.9L1294.89 556.773L1273.33 554.915L1273.29 553.53Z" fill="#E4A6FF"/>
<path fill-rule="evenodd" clip-rule="evenodd" d="M1313.38 547.777L1358.27 559.152L1421.38 601.586L1432.72 608.842L1517.5 633.724L1511.46 622.148L1441.78 609.499L1429.88 604.661L1420.01 598.091L1358.21 557.174L1316.84 544.414L1310.36 536.764L1313.38 547.777Z" fill="#E4A6FF"/>
<path fill-rule="evenodd" clip-rule="evenodd" d="M1327.16 551.268L1331.11 548.817L1341.16 551.917L1336.14 553.544L1327.16 551.268Z" fill="#6763FA"/>
<path fill-rule="evenodd" clip-rule="evenodd" d="M1339.2 553.799L1341.2 553.04L1344.29 553.883L1342.57 554.694L1339.2 553.799Z" fill="#6763FA"/>
<path fill-rule="evenodd" clip-rule="evenodd" d="M1275.38 554.542L1275.36 553.771L1286.22 552.653L1286.3 555.092L1275.38 554.542Z" fill="#6763FA"/>
<path fill-rule="evenodd" clip-rule="evenodd" d="M1287.08 555.359L1287.58 554.323L1290.33 554.387L1288.73 555.513L1287.08 555.359Z" fill="#6763FA"/>
<path fill-rule="evenodd" clip-rule="evenodd" d="M1272.69 582.008L1278.65 580.049L1278.72 582.365L1272.75 583.957L1272.69 582.008Z" fill="#6763FA"/>
<path fill-rule="evenodd" clip-rule="evenodd" d="M1274.26 584.999L1277.25 583.816L1277.3 585.449L1274.3 586.133L1274.26 584.999Z" fill="#6763FA"/>
<path fill-rule="evenodd" clip-rule="evenodd" d="M1230.41 640.488L1225.89 633.072L1233.56 631.263L1238.39 639.373L1230.41 640.488Z" fill="#6763FA"/>
<path fill-rule="evenodd" clip-rule="evenodd" d="M1227.62 631.041L1227.48 626.686L1229.39 626.627L1231.19 630.93L1227.62 631.041Z" fill="#6763FA"/>
<path fill-rule="evenodd" clip-rule="evenodd" d="M1180.16 618.287L1182.59 617.274L1191.75 623.134L1188.15 624.82L1180.16 618.287Z" fill="#6763FA"/>
<path fill-rule="evenodd" clip-rule="evenodd" d="M1188.56 625.17L1190.99 624.217L1191.81 624.888L1189.13 625.758L1188.56 625.17Z" fill="#6763FA"/>
<path fill-rule="evenodd" clip-rule="evenodd" d="M1190.17 564.684L1189.89 555.702L1170.96 560.625L1172.7 565.227L1190.17 564.684Z" fill="#6763FA"/>
<path fill-rule="evenodd" clip-rule="evenodd" d="M1185.58 566.143L1173.47 565.85L1174.8 566.931L1185.6 566.915L1185.58 566.143Z" fill="#6763FA"/>
</g>
<g opacity="0.3" filter="url(#filter3_f_204_684)">
<path fill-rule="evenodd" clip-rule="evenodd" d="M1187.26 647.822L1155.48 584.046L1151.83 581.32L1146.09 580.774L1146.18 583.852L1128.98 551.628L1121.39 549.951L1105.88 556.758L1117.58 633.914L1117.14 636.915L1104.14 589.849L1101.37 587.182L1099.32 581.792L1096.33 580.488L1093.82 586.098L1091.43 586.832L1087.83 617.692L1085.69 617.967L1085.1 650.997L1187.26 647.822Z" fill="url(#paint10_linear_204_684)"/>
<path opacity="0.5" fill-rule="evenodd" clip-rule="evenodd" d="M1143.11 649.194L1142.2 648.736L1134.11 638.997L1126.4 608.398L1121.46 603.746L1123.33 611.696L1127.38 639.811L1127.64 648.391L1120.02 608.74L1112.85 579.447L1109.89 581.973L1117.48 633.223L1116.97 636.444L1121.3 649.872L1143.11 649.194Z" fill="#6763FA"/>
<path opacity="0.5" fill-rule="evenodd" clip-rule="evenodd" d="M1114.14 649.912L1102.63 624.857L1095.01 586.873L1094.63 592.78L1097.12 613.194L1099.36 613.125L1098.89 615.225L1097.79 618.711L1096.35 620.086L1094.39 606.826L1088.89 608.576L1087.82 617.692L1088.09 626.114L1086.71 650.947L1114.14 649.912Z" fill="#6763FA"/>
<path fill-rule="evenodd" clip-rule="evenodd" d="M1113.39 553.46L1120.02 608.74L1123.33 611.697L1118.41 583.727L1119.5 583.426L1134.11 638.997L1142.2 648.737L1163.92 648.319L1146.95 602.91L1166.88 648.455L1187.26 647.822L1155.48 584.046L1151.83 581.321L1146.09 580.774L1156.92 613.121L1145.21 582.627L1128.98 551.628L1121.39 549.951L1113.39 553.46Z" fill="url(#paint11_linear_204_684)"/>
<path fill-rule="evenodd" clip-rule="evenodd" d="M1096.33 580.488L1095.01 586.873L1102.63 624.858L1114.14 649.912L1121.3 649.872L1099.32 581.792L1096.33 580.488Z" fill="#251369"/>
<path fill-rule="evenodd" clip-rule="evenodd" d="M1093.82 586.098L1097.79 618.711L1096.35 620.086L1091.43 586.832L1093.82 586.098Z" fill="#251369"/>
<path fill-rule="evenodd" clip-rule="evenodd" d="M1087.82 617.692L1087.94 621.448L1088.09 626.114L1085.69 617.968L1087.82 617.692Z" fill="#251369"/>
<path fill-rule="evenodd" clip-rule="evenodd" d="M1108.08 555.793L1107.6 557.099L1117.75 589.832L1110.93 572.277L1109.16 568.803L1112.32 578.408L1117.57 599.731L1121.3 649.872L1110.78 589.073L1105.88 556.758L1108.08 555.793Z" fill="#E099FF" fill-opacity="0.61"/>
<path fill-rule="evenodd" clip-rule="evenodd" d="M1127.2 649.688L1124.25 632.365L1125.31 627.715L1128.88 619.074L1129.73 622.33L1126.93 625.625L1124.6 632.265L1129.75 647.29L1133.95 649.478L1127.2 649.688Z" fill="#E4A6FF"/>
<path fill-rule="evenodd" clip-rule="evenodd" d="M1109.14 650.25L1100.82 635.6L1095.48 630.836L1095.28 624.425L1088.28 613.803L1087.83 617.692L1089.87 627.216L1094.28 630.989L1100.07 636.054L1105.15 648.397L1102.63 649.387L1088.49 639.046L1085.43 632.439L1085.39 634.871L1087.42 639.335L1100.74 650.511L1109.14 650.25Z" fill="#E4A6FF"/>
<path fill-rule="evenodd" clip-rule="evenodd" d="M1099.18 635.278L1099.29 638.563L1098.54 645.781L1098.98 646.713L1100.99 648.184L1099.23 644.954L1099.49 638.11L1100.17 636.287L1100.15 635.602L1099.18 635.278Z" fill="#E4A6FF"/>
<path fill-rule="evenodd" clip-rule="evenodd" d="M1102.41 639.379L1101.1 640.464L1099.03 641.056L1099.05 641.899L1099.87 641.086L1102.45 640.72L1102.41 639.379Z" fill="#E4A6FF"/>
<path fill-rule="evenodd" clip-rule="evenodd" d="M1125.17 628.313L1125.11 626.308L1120.39 620.478L1119.01 619.125L1117.56 615.806L1122.01 620.844L1125.1 625.924L1126.43 626.164L1125.17 628.313Z" fill="#E4A6FF"/>
<path fill-rule="evenodd" clip-rule="evenodd" d="M1115.59 552.496L1129.21 605.53L1146.71 606.711L1133.72 570.387L1140.91 578.574L1142.7 577.837L1128.98 551.628L1121.39 549.951L1115.59 552.496Z" fill="url(#paint12_linear_204_684)"/>
<path fill-rule="evenodd" clip-rule="evenodd" d="M1115.59 552.496L1129.21 605.53L1146.71 606.711L1133.72 570.387L1140.91 578.574L1142.7 577.837L1128.98 551.628L1121.39 549.951L1115.59 552.496Z" fill="url(#paint13_linear_204_684)" fill-opacity="0.2"/>
<path fill-rule="evenodd" clip-rule="evenodd" d="M1137.53 610.727L1142.31 623.624L1155.49 625.759L1149.92 610.87L1137.53 610.727Z" fill="#6763FA"/>
<path fill-rule="evenodd" clip-rule="evenodd" d="M1151.44 605L1155.16 615.299L1156.46 615.558L1154.4 606.54L1156.18 606.485L1157.5 610.169L1161.66 609.977L1156.16 594.971L1150.94 595.258L1153.44 602.708L1151.17 602.779L1151.44 605Z" fill="#6763FA"/>
<path fill-rule="evenodd" clip-rule="evenodd" d="M1164.97 630.208L1167.05 636.671L1169.33 636.601L1167.05 630.143L1164.97 630.208Z" fill="#6763FA"/>
<path fill-rule="evenodd" clip-rule="evenodd" d="M1145.55 644.32L1145.47 641.615L1149.34 641.144L1150.53 644.773L1145.55 644.32Z" fill="#6763FA"/>
<path fill-rule="evenodd" clip-rule="evenodd" d="M1102.63 624.857L1097.96 601.577L1099.91 601.018L1105.08 624.429L1106.28 624.392L1103.58 610.738L1108.62 610.582L1115.84 632.218L1106.65 632.02L1102.63 624.857Z" fill="url(#paint14_linear_204_684)"/>
<path fill-rule="evenodd" clip-rule="evenodd" d="M1111.5 633.782L1113.78 638.26L1117.51 638.144L1114.54 633.965L1111.5 633.782Z" fill="#6763FA"/>
<path fill-rule="evenodd" clip-rule="evenodd" d="M1118.44 624.014L1122.87 623.539L1124.52 624.982L1118.45 624.423L1118.44 624.014Z" fill="#E4A6FF"/>
<path fill-rule="evenodd" clip-rule="evenodd" d="M1129.73 622.331L1142.38 625.712L1160.17 638.281L1163.37 640.431L1187.26 647.822L1185.55 644.397L1165.92 640.629L1162.57 639.194L1159.78 637.248L1142.36 625.128L1130.7 621.338L1128.87 619.075L1129.73 622.331Z" fill="#E4A6FF"/>
<path fill-rule="evenodd" clip-rule="evenodd" d="M1133.61 623.368L1134.72 622.646L1137.55 623.567L1136.14 624.045L1133.61 623.368Z" fill="#6763FA"/>
<path fill-rule="evenodd" clip-rule="evenodd" d="M1137 624.122L1137.56 623.898L1138.44 624.149L1137.95 624.388L1137 624.122Z" fill="#6763FA"/>
<path fill-rule="evenodd" clip-rule="evenodd" d="M1119.03 624.314L1119.02 624.086L1122.08 623.76L1122.1 624.481L1119.03 624.314Z" fill="#6763FA"/>
<path fill-rule="evenodd" clip-rule="evenodd" d="M1122.32 624.56L1122.47 624.254L1123.24 624.274L1122.79 624.606L1122.32 624.56Z" fill="#6763FA"/>
<path fill-rule="evenodd" clip-rule="evenodd" d="M1118.28 632.431L1119.96 631.854L1119.98 632.539L1118.3 633.007L1118.28 632.431Z" fill="#6763FA"/>
<path fill-rule="evenodd" clip-rule="evenodd" d="M1118.73 633.315L1119.57 632.967L1119.58 633.449L1118.74 633.65L1118.73 633.315Z" fill="#6763FA"/>
<path fill-rule="evenodd" clip-rule="evenodd" d="M1106.4 649.696L1105.12 647.503L1107.28 646.971L1108.64 649.37L1106.4 649.696Z" fill="#6763FA"/>
<path fill-rule="evenodd" clip-rule="evenodd" d="M1105.61 646.903L1105.57 645.616L1106.1 645.599L1106.61 646.872L1105.61 646.903Z" fill="#6763FA"/>
<path fill-rule="evenodd" clip-rule="evenodd" d="M1092.24 643.113L1092.92 642.814L1095.5 644.55L1094.49 645.047L1092.24 643.113Z" fill="#6763FA"/>
<path fill-rule="evenodd" clip-rule="evenodd" d="M1094.6 645.151L1095.29 644.87L1095.52 645.069L1094.77 645.325L1094.6 645.151Z" fill="#6763FA"/>
<path fill-rule="evenodd" clip-rule="evenodd" d="M1095.03 627.275L1094.95 624.62L1089.62 626.067L1090.11 627.427L1095.03 627.275Z" fill="#6763FA"/>
<path fill-rule="evenodd" clip-rule="evenodd" d="M1093.74 627.704L1090.33 627.612L1090.7 627.932L1093.75 627.932L1093.74 627.704Z" fill="#6763FA"/>
</g>
<g filter="url(#filter4_f_204_684)">
<path d="M1017.41 653.094C1070.79 649.532 1337.97 579.097 1384.53 550.847L1527.09 473.674C1558.88 509.175 1513.44 656.485 1525.65 657.069L1017.41 653.094C1014.4 653.294 1012.08 653.283 1010.5 653.04L1017.41 653.094Z" fill="url(#paint15_linear_204_684)" fill-opacity="0.85"/>
</g>
<g filter="url(#filter5_f_204_684)">
<path d="M404.843 646.141C359.319 642.518 131.412 571.776 91.6783 543.473L-29.9667 466.136C-57.0401 501.601 -18.1175 648.962 -28.5324 649.531L404.843 646.141C407.407 646.345 409.392 646.337 410.733 646.095L404.843 646.141Z" fill="url(#paint16_linear_204_684)" fill-opacity="0.85"/>
</g>
<g style="mix-blend-mode:plus-lighter" filter="url(#filter6_f_204_684)">
<path d="M-78.1544 650.566L770 632L1514.35 661.805L1589.87 1237.31L-135.294 1278.6L-78.1544 650.566Z" fill="url(#paint17_linear_204_684)"/>
</g>
<g filter="url(#filter7_f_204_684)">
<ellipse cx="1265.32" cy="667.341" rx="240.243" ry="38.0385" transform="rotate(1.08748 1265.32 667.341)" fill="#927DFF"/>
</g>
<g filter="url(#filter8_f_204_684)">
<ellipse cx="181.797" cy="663.225" rx="240.243" ry="38.0385" transform="rotate(1.08748 181.797 663.225)" fill="#927DFF"/>
</g>
<g filter="url(#filter9_f_204_684)">
<path fill-rule="evenodd" clip-rule="evenodd" d="M39.3788 1085.44L52.4096 746.055L60.5168 729.096L78.6246 720.33L82.7273 735.173L93.0797 562.463L115.66 546.303L176.442 562.296L248.655 944.261L254.42 958.154L229.666 718.874L234.94 703.141L233.939 675.142L241.914 665.697L258.221 689.872L267.144 690.823L323.281 834.729L330.713 833.759L380.03 991.285L39.3788 1085.44Z" fill="url(#paint18_linear_204_684)"/>
<path opacity="0.5" fill-rule="evenodd" clip-rule="evenodd" d="M186.604 1044.75L188.938 1041.59L201.563 986.293L183.035 831.522L192.611 803.963L197.852 844.037L224.898 982.978L236.333 1024.35L204.509 826.336L186.073 678.393L199.447 687.316L248.007 940.841L254.317 955.714L259.324 1024.65L186.604 1044.75Z" fill="#6763FA"/>
<path opacity="0.5" fill-rule="evenodd" clip-rule="evenodd" d="M282.926 1017.18L284.856 884.889L255.427 694.854L265.135 722.735L286.26 823.142L278.785 825.209L283.35 834.759L291.969 850.275L298.657 855.322L286.093 789.73L306.699 792.223L323.281 834.731L334.505 875.338L374.664 992.769L282.926 1017.18Z" fill="#6763FA"/>
<path fill-rule="evenodd" clip-rule="evenodd" d="M146.99 554.548L204.511 826.335L197.853 844.037L173.921 704.841L169.893 704.572L201.565 986.293L188.94 1041.59L116.86 1062.84L107.558 827.242L107.329 1066.66L39.3783 1085.44L52.4091 746.055L60.5163 729.096L78.6241 720.33L89.3795 886.821L84.1749 728.265L93.0792 562.464L115.66 546.303L146.99 554.548Z" fill="url(#paint19_linear_204_684)"/>
<path fill-rule="evenodd" clip-rule="evenodd" d="M241.914 665.697L255.428 694.852L284.857 884.887L282.927 1017.18L259.327 1024.65L233.94 675.142L241.914 665.697Z" fill="#251369"/>
<path fill-rule="evenodd" clip-rule="evenodd" d="M258.22 689.873L291.968 850.274L298.656 855.321L267.143 690.823L258.22 689.873Z" fill="#251369"/>
<path fill-rule="evenodd" clip-rule="evenodd" d="M323.281 834.73L328.286 852.837L334.505 875.337L330.713 833.76L323.281 834.73Z" fill="#251369"/>
<path fill-rule="evenodd" clip-rule="evenodd" d="M167.823 560.029L171.269 565.771L184.837 733.369L182.113 642.005L182.945 623.477L186.322 672.852L199.647 780.574L259.327 1024.65L206.686 722.271L176.442 562.297L167.823 560.029Z" fill="#E099FF" fill-opacity="0.61"/>
<path fill-rule="evenodd" clip-rule="evenodd" d="M239.654 1030.09L224.514 943.978L214.345 922.852L190.209 885.297L192.067 901.804L205.994 914.583L223.204 943.877L227.811 1021.34L217.153 1036.31L239.654 1030.09Z" fill="#E4A6FF"/>
<path fill-rule="evenodd" clip-rule="evenodd" d="M299.858 1013.44L306.237 934.385L316.958 905.861L308.414 874.949L316.208 816.593L323.28 834.729L330.233 882.515L321.134 905.303L309.341 935.757L310.34 1000.3L320.047 1002.34L351.738 937.686L352.319 902.778L355.952 914.377L355.656 937.929L327.871 1005.7L299.858 1013.44Z" fill="#E4A6FF"/>
<path fill-rule="evenodd" clip-rule="evenodd" d="M311.148 931.097L315.525 946.935L328.341 980.696L328.242 985.627L323.733 994.822L324.883 977.472L314.213 944.978L309.362 936.976L308.447 933.675L311.148 931.097Z" fill="#E4A6FF"/>
<path fill-rule="evenodd" clip-rule="evenodd" d="M306.415 954.185L312.277 957.982L319.952 958.595L321.075 962.659L317.226 959.641L308.202 960.65L306.415 954.185Z" fill="#E4A6FF"/>
<path fill-rule="evenodd" clip-rule="evenodd" d="M215.652 925.566L212.98 915.898L220.153 882.926L222.729 874.98L222.756 857.527L215.343 886.418L212.468 914.045L208.415 916.627L215.652 925.566Z" fill="#E4A6FF"/>
<path fill-rule="evenodd" clip-rule="evenodd" d="M138.383 552.283L169.676 820.799L113.8 845.19L104.39 657.364L92.4916 704.26L85.5487 702.644L93.0776 562.464L115.658 546.304L138.383 552.283Z" fill="url(#paint20_linear_204_684)"/>
<path fill-rule="evenodd" clip-rule="evenodd" d="M138.383 552.283L169.676 820.799L113.8 845.19L104.39 657.364L92.4916 704.26L85.5487 702.644L93.0776 562.464L115.658 546.304L138.383 552.283Z" fill="url(#paint21_linear_204_684)" fill-opacity="0.2"/>
<path fill-rule="evenodd" clip-rule="evenodd" d="M149.763 854.589L152.529 921.465L112.239 945.792L109.189 868.545L149.763 854.589Z" fill="#6763FA"/>
<path fill-rule="evenodd" clip-rule="evenodd" d="M95.7734 842.061L98.3001 895.361L94.3934 897.995L88.2562 852.6L82.3009 854.246L83.238 873.302L69.295 876.83L65.8524 799.092L83.4404 794.877L85.9176 833.223L93.463 831.138L95.7734 842.061Z" fill="#6763FA"/>
<path fill-rule="evenodd" clip-rule="evenodd" d="M87.4238 977.246L89.8588 1010.42L82.2589 1012.52L80.4965 979.16L87.4238 977.246Z" fill="#6763FA"/>
<path fill-rule="evenodd" clip-rule="evenodd" d="M284.856 884.888L266.819 768.418L259.581 767.837L276.191 885.457L272.168 886.569L261.478 818.298L244.674 822.943L251.95 934.276L281.894 923.495L284.856 884.888Z" fill="url(#paint22_linear_204_684)"/>
<path fill-rule="evenodd" clip-rule="evenodd" d="M268.494 937.11L267.397 960.999L254.953 964.438L258.731 941.25L268.494 937.11Z" fill="#6763FA"/>
<path fill-rule="evenodd" clip-rule="evenodd" d="M231.636 897.772L216.388 900.237L213.003 908.921L232.181 899.746L231.636 897.772Z" fill="#E4A6FF"/>
<path fill-rule="evenodd" clip-rule="evenodd" d="M192.07 901.803L155.314 931.532L114.807 1010.76L107.37 1024.48L39.38 1085.44L40.0781 1067.22L99.2552 1028.16L108.234 1017.7L114.595 1005.4L154.535 928.714L187.452 898.09L190.212 885.296L192.07 901.803Z" fill="#E4A6FF"/>
<path fill-rule="evenodd" clip-rule="evenodd" d="M180.791 910.925L176.095 908.657L168.097 916.097L173.437 916.875L180.791 910.925Z" fill="#6763FA"/>
<path fill-rule="evenodd" clip-rule="evenodd" d="M170.708 918.166L168.541 917.696L166.032 919.828L167.97 920.453L170.708 918.166Z" fill="#6763FA"/>
<path fill-rule="evenodd" clip-rule="evenodd" d="M230.121 899.841L229.818 898.742L219.285 900.458L220.246 903.934L230.121 899.841Z" fill="#6763FA"/>
<path fill-rule="evenodd" clip-rule="evenodd" d="M219.634 904.55L218.73 903.235L216.217 904.159L218.177 905.267L219.634 904.55Z" fill="#6763FA"/>
<path fill-rule="evenodd" clip-rule="evenodd" d="M244.225 937.907L237.88 936.941L238.792 940.241L244.992 940.684L244.225 937.907Z" fill="#6763FA"/>
<path fill-rule="evenodd" clip-rule="evenodd" d="M244.031 942.618L240.771 941.849L241.414 944.176L244.478 944.234L244.031 942.618Z" fill="#6763FA"/>
<path fill-rule="evenodd" clip-rule="evenodd" d="M345.242 961.173L342.563 960.476L336.56 971.552L340.608 972.845L345.242 961.173Z" fill="#6763FA"/>
<path fill-rule="evenodd" clip-rule="evenodd" d="M340.378 973.466L337.722 972.854L337.251 974.053L340.095 974.473L340.378 973.466Z" fill="#6763FA"/>
<path fill-rule="evenodd" clip-rule="evenodd" d="M313.317 888.329L309.779 875.529L329.395 876.75L329.724 883.794L313.317 888.329Z" fill="#6763FA"/>
<path fill-rule="evenodd" clip-rule="evenodd" d="M318.191 888.998L329.279 884.908L328.506 886.842L318.495 890.098L318.191 888.998Z" fill="#6763FA"/>
</g>
<g filter="url(#filter10_f_204_684)">
<path fill-rule="evenodd" clip-rule="evenodd" d="M374.663 687.285L418.163 581.401L423.119 576.855L430.875 575.895L430.717 580.992L454.242 527.481L464.51 524.633L485.375 535.754L468.845 663.598L469.415 668.562L487.415 590.52L491.175 586.078L493.989 577.136L498.04 574.949L501.375 584.213L504.597 585.404L509.167 636.459L512.051 636.895L512.525 691.57L374.663 687.285Z" fill="url(#paint23_linear_204_684)"/>
<path opacity="0.5" fill-rule="evenodd" clip-rule="evenodd" d="M434.246 689.137L435.477 688.371L446.484 672.169L457.187 621.439L463.899 613.692L461.293 626.872L455.57 673.453L455.129 687.66L465.793 621.946L475.753 573.382L479.729 577.535L468.992 662.453L469.654 667.781L463.676 690.052L434.246 689.137Z" fill="#6763FA"/>
<path opacity="0.5" fill-rule="evenodd" clip-rule="evenodd" d="M473.335 690.051L489.116 648.463L499.765 585.507L500.215 595.282L496.669 629.102L493.644 629.008L494.26 632.48L495.711 638.241L497.632 640.503L500.41 618.533L507.817 621.379L509.167 636.459L508.734 650.405L510.354 691.503L473.335 690.051Z" fill="#6763FA"/>
<path fill-rule="evenodd" clip-rule="evenodd" d="M475.265 530.366L465.794 621.946L461.294 626.872L468.207 580.521L466.734 580.034L446.484 672.17L435.478 688.371L406.155 687.886L429.504 612.55L402.163 688.14L374.663 687.285L418.163 581.401L423.119 576.855L430.876 575.895L415.937 629.55L432.044 578.956L454.242 527.482L464.51 524.633L475.265 530.366Z" fill="url(#paint24_linear_204_684)"/>
<path fill-rule="evenodd" clip-rule="evenodd" d="M498.041 574.949L499.766 585.507L489.116 648.463L473.335 690.051L463.677 690.052L493.989 577.136L498.041 574.949Z" fill="#251369"/>
<path fill-rule="evenodd" clip-rule="evenodd" d="M501.374 584.213L495.71 638.242L497.631 640.503L504.596 585.405L501.374 584.213Z" fill="#251369"/>
<path fill-rule="evenodd" clip-rule="evenodd" d="M509.166 636.459L508.973 642.678L508.733 650.405L512.051 636.895L509.166 636.459Z" fill="#251369"/>
<path fill-rule="evenodd" clip-rule="evenodd" d="M482.416 534.178L483.049 536.335L469.033 590.621L478.417 561.494L480.837 555.726L476.477 571.657L469.187 607.008L463.676 690.052L478.452 589.298L485.375 535.754L482.416 534.178Z" fill="#E099FF" fill-opacity="0.61"/>
<path fill-rule="evenodd" clip-rule="evenodd" d="M455.714 689.804L459.866 661.098L458.475 653.41L453.742 639.139L452.557 644.537L456.3 649.965L459.388 660.935L452.29 685.858L446.608 689.521L455.714 689.804Z" fill="#E4A6FF"/>
<path fill-rule="evenodd" clip-rule="evenodd" d="M480.08 690.562L491.461 666.23L498.71 658.292L499.04 647.676L508.592 630.025L509.167 636.459L506.322 652.245L500.332 658.533L492.464 666.974L485.489 687.457L488.88 689.071L508.068 671.817L512.259 660.851L512.294 664.876L509.503 672.285L491.417 690.914L480.08 690.562Z" fill="#E4A6FF"/>
<path fill-rule="evenodd" clip-rule="evenodd" d="M493.668 665.682L493.499 671.121L494.439 683.063L493.841 684.611L491.111 687.065L493.516 681.7L493.232 670.372L492.333 667.36L492.367 666.226L493.668 665.682Z" fill="#E4A6FF"/>
<path fill-rule="evenodd" clip-rule="evenodd" d="M489.273 672.501L491.029 674.286L493.823 675.246L493.78 676.642L492.687 675.304L489.204 674.721L489.273 672.501Z" fill="#E4A6FF"/>
<path fill-rule="evenodd" clip-rule="evenodd" d="M458.656 654.398L458.759 651.078L465.19 641.381L467.056 639.129L469.053 633.619L462.997 642.003L458.779 650.441L456.972 650.852L458.656 654.398Z" fill="#E4A6FF"/>
<path fill-rule="evenodd" clip-rule="evenodd" d="M472.31 528.791L453.422 616.719L429.79 618.841L447.66 558.583L437.881 572.205L435.473 571.001L454.242 527.482L464.509 524.633L472.31 528.791Z" fill="url(#paint25_linear_204_684)"/>
<path fill-rule="evenodd" clip-rule="evenodd" d="M472.31 528.791L453.422 616.719L429.79 618.841L447.66 558.583L437.881 572.205L435.473 571.001L454.242 527.482L464.509 524.633L472.31 528.791Z" fill="url(#paint26_linear_204_684)" fill-opacity="0.2"/>
<path fill-rule="evenodd" clip-rule="evenodd" d="M442.144 625.401L435.563 646.798L417.756 650.457L425.411 625.757L442.144 625.401Z" fill="#6763FA"/>
<path fill-rule="evenodd" clip-rule="evenodd" d="M423.419 616.053L418.294 633.138L416.536 633.58L419.413 618.63L417.003 618.556L415.184 624.667L409.578 624.389L417.143 599.494L424.187 599.92L420.746 612.277L423.8 612.372L423.419 616.053Z" fill="#6763FA"/>
<path fill-rule="evenodd" clip-rule="evenodd" d="M404.912 657.913L402.044 668.634L398.968 668.538L402.109 657.825L404.912 657.913Z" fill="#6763FA"/>
<path fill-rule="evenodd" clip-rule="evenodd" d="M430.994 681.092L431.133 676.613L425.905 675.871L424.269 681.89L430.994 681.092Z" fill="#6763FA"/>
<path fill-rule="evenodd" clip-rule="evenodd" d="M489.115 648.463L495.642 609.878L493.007 608.971L485.816 647.777L484.188 647.727L487.97 625.098L481.17 624.886L471.211 660.774L483.615 660.36L489.115 648.463Z" fill="url(#paint27_linear_204_684)"/>
<path fill-rule="evenodd" clip-rule="evenodd" d="M477.063 663.321L473.934 670.756L468.899 670.6L472.948 663.654L477.063 663.321Z" fill="#6763FA"/>
<path fill-rule="evenodd" clip-rule="evenodd" d="M467.784 647.216L461.813 646.472L459.561 648.876L467.763 647.894L467.784 647.216Z" fill="#E4A6FF"/>
<path fill-rule="evenodd" clip-rule="evenodd" d="M452.558 644.538L435.456 650.256L411.317 671.233L406.98 674.822L374.664 687.285L376.998 681.6L403.532 675.175L408.074 672.767L411.848 669.519L435.486 649.288L451.258 642.904L453.744 639.139L452.558 644.538Z" fill="#E4A6FF"/>
<path fill-rule="evenodd" clip-rule="evenodd" d="M447.31 646.292L445.816 645.107L441.984 646.658L443.888 647.437L447.31 646.292Z" fill="#6763FA"/>
<path fill-rule="evenodd" clip-rule="evenodd" d="M442.723 647.572L441.968 647.208L440.788 647.63L441.441 648.021L442.723 647.572Z" fill="#6763FA"/>
<path fill-rule="evenodd" clip-rule="evenodd" d="M466.984 647.719L466.996 647.341L462.869 646.831L462.832 648.025L466.984 647.719Z" fill="#6763FA"/>
<path fill-rule="evenodd" clip-rule="evenodd" d="M462.533 648.158L462.345 647.653L461.302 647.694L461.908 648.239L462.533 648.158Z" fill="#6763FA"/>
<path fill-rule="evenodd" clip-rule="evenodd" d="M467.914 661.149L465.656 660.211L465.621 661.344L467.885 662.103L467.914 661.149Z" fill="#6763FA"/>
<path fill-rule="evenodd" clip-rule="evenodd" d="M467.306 662.618L466.176 662.049L466.152 662.848L467.288 663.173L467.306 662.618Z" fill="#6763FA"/>
<path fill-rule="evenodd" clip-rule="evenodd" d="M483.791 689.62L485.535 685.976L482.626 685.116L480.763 689.101L483.791 689.62Z" fill="#6763FA"/>
<path fill-rule="evenodd" clip-rule="evenodd" d="M484.885 684.988L484.951 682.856L484.227 682.834L483.528 684.945L484.885 684.988Z" fill="#6763FA"/>
<path fill-rule="evenodd" clip-rule="evenodd" d="M502.97 678.586L502.05 678.098L498.548 680.997L499.912 681.81L502.97 678.586Z" fill="#6763FA"/>
<path fill-rule="evenodd" clip-rule="evenodd" d="M499.754 681.983L498.833 681.524L498.52 681.856L499.534 682.272L499.754 681.983Z" fill="#6763FA"/>
<path fill-rule="evenodd" clip-rule="evenodd" d="M499.346 652.392L499.483 647.996L506.666 650.341L505.987 652.598L499.346 652.392Z" fill="#6763FA"/>
<path fill-rule="evenodd" clip-rule="evenodd" d="M501.089 653.09L505.693 652.906L505.185 653.439L501.078 653.468L501.089 653.09Z" fill="#6763FA"/>
</g>
<path fill-rule="evenodd" clip-rule="evenodd" d="M1540.33 817.293L1495.43 571.756L1488.56 561.363L1476.37 559.492L1475.43 571.407L1450.27 447.393L1434.5 441.227L1398.51 468.245L1395.12 766.444L1393.05 778.08L1382.46 596.428L1377.48 586.222L1375.07 565.443L1369.09 560.525L1361.59 582.351L1356.16 585.293L1336.92 704.92L1332.2 706.078L1318.68 833.974L1540.33 817.293Z" fill="url(#paint28_linear_204_684)"/>
<path opacity="0.5" fill-rule="evenodd" clip-rule="evenodd" d="M1444.54 824.502L1442.75 822.771L1428.91 785.411L1423.62 667.282L1414.69 649.487L1415.78 680.185L1414.07 788.852L1411.46 822.058L1409.73 668.883L1405.13 555.783L1397.79 565.689L1395.15 763.774L1392.85 776.266L1397.22 828.063L1444.54 824.502Z" fill="#6763FA"/>
<path opacity="0.5" fill-rule="evenodd" clip-rule="evenodd" d="M1381.76 828.526L1366.21 732.024L1363.87 585.299L1360.86 608.183L1358.64 687.109L1363.51 686.743L1361.71 694.894L1358.04 708.438L1354.44 713.821L1355.12 662.572L1342.6 669.584L1336.92 704.92L1334.36 737.514L1322.17 833.711L1381.76 828.526Z" fill="#6763FA"/>
<path fill-rule="evenodd" clip-rule="evenodd" d="M1415.95 455.154L1409.73 668.882L1415.78 680.185L1415.54 572.115L1418.01 570.904L1428.91 785.411L1442.74 822.77L1489.79 820.22L1470.01 645.153L1496.12 820.62L1540.33 817.293L1495.43 571.756L1488.56 561.363L1476.37 559.492L1487.75 684.258L1473.78 566.706L1450.27 447.393L1434.5 441.227L1415.95 455.154Z" fill="url(#paint29_linear_204_684)"/>
<path fill-rule="evenodd" clip-rule="evenodd" d="M1369.09 560.525L1363.87 585.3L1366.21 732.025L1381.76 828.527L1397.22 828.064L1375.06 565.443L1369.09 560.525Z" fill="#251369"/>
<path fill-rule="evenodd" clip-rule="evenodd" d="M1361.59 582.352L1358.04 708.438L1354.44 713.821L1356.16 585.294L1361.59 582.352Z" fill="#251369"/>
<path fill-rule="evenodd" clip-rule="evenodd" d="M1336.92 704.92L1335.78 719.455L1334.36 737.515L1332.21 706.079L1336.92 704.92Z" fill="#251369"/>
<path fill-rule="evenodd" clip-rule="evenodd" d="M1403.62 464.414L1402.1 469.491L1411.86 595.776L1403.64 528.108L1401.11 514.734L1404.37 551.782L1407.79 634.109L1397.22 828.063L1397.09 593.136L1398.51 468.245L1403.62 464.414Z" fill="#E099FF" fill-opacity="0.61"/>
<path fill-rule="evenodd" clip-rule="evenodd" d="M1410.02 827.1L1410.08 760.163L1414.1 742.116L1425 708.51L1425.64 721.079L1418.38 733.953L1410.88 759.759L1416.42 817.705L1424.66 825.998L1410.02 827.1Z" fill="#E4A6FF"/>
<path fill-rule="evenodd" clip-rule="evenodd" d="M1370.85 830.048L1358.31 773.692L1348.56 755.477L1350.51 730.665L1339.35 689.844L1336.92 704.92L1337.79 741.702L1345.91 756.119L1356.53 775.479L1362.92 823.048L1357.11 826.987L1330.43 787.56L1326.28 762.115L1325.28 771.532L1328.02 788.725L1352.62 831.42L1370.85 830.048Z" fill="#E4A6FF"/>
<path fill-rule="evenodd" clip-rule="evenodd" d="M1354.91 772.517L1353.91 785.23L1349.62 813.205L1350.21 816.795L1354.01 822.402L1351.41 809.972L1354.51 783.465L1356.65 776.378L1356.86 773.728L1354.91 772.517Z" fill="#E4A6FF"/>
<path fill-rule="evenodd" clip-rule="evenodd" d="M1360.35 788.253L1357.12 792.512L1352.42 794.892L1352.17 798.155L1354.23 794.973L1359.94 793.442L1360.35 788.253Z" fill="#E4A6FF"/>
<path fill-rule="evenodd" clip-rule="evenodd" d="M1413.58 744.435L1414.19 736.675L1406.16 714.307L1403.7 709.13L1401.79 696.341L1409.52 715.657L1414.31 735.187L1417.1 736.06L1413.58 744.435Z" fill="#E4A6FF"/>
<path fill-rule="evenodd" clip-rule="evenodd" d="M1421.05 451.329L1430.75 656.059L1468.08 659.882L1453.54 519.814L1466.02 551.201L1470.15 548.269L1450.27 447.393L1434.5 441.227L1421.05 451.329Z" fill="url(#paint30_linear_204_684)"/>
<path fill-rule="evenodd" clip-rule="evenodd" d="M1421.05 451.329L1430.75 656.059L1468.08 659.882L1453.54 519.814L1466.02 551.201L1470.15 548.269L1450.27 447.393L1434.5 441.227L1421.05 451.329Z" fill="url(#paint31_linear_204_684)" fill-opacity="0.2"/>
<path fill-rule="evenodd" clip-rule="evenodd" d="M1446.78 675.821L1452.31 725.546L1479.96 733.243L1473.47 675.844L1446.78 675.821Z" fill="#6763FA"/>
<path fill-rule="evenodd" clip-rule="evenodd" d="M1478.93 653.052L1483.14 692.764L1485.85 693.712L1484.74 658.887L1488.61 658.596L1490.1 672.802L1499.13 671.88L1492.84 614.022L1481.47 615.357L1484.09 644.093L1479.18 644.463L1478.93 653.052Z" fill="#6763FA"/>
<path fill-rule="evenodd" clip-rule="evenodd" d="M1498.77 750.06L1500.86 774.995L1505.81 774.623L1503.28 749.721L1498.77 750.06Z" fill="#6763FA"/>
<path fill-rule="evenodd" clip-rule="evenodd" d="M1451.62 805.529L1452.44 795.062L1460.98 793.072L1462.2 807.071L1451.62 805.529Z" fill="#6763FA"/>
<path fill-rule="evenodd" clip-rule="evenodd" d="M1366.21 732.025L1364.78 642.1L1369.21 639.852L1371.65 730.262L1374.27 730.065L1373.5 677.324L1384.44 676.501L1392 759.954L1372.24 759.584L1366.21 732.025Z" fill="url(#paint32_linear_204_684)"/>
<path fill-rule="evenodd" clip-rule="evenodd" d="M1382.03 766.194L1385.31 783.431L1393.4 782.822L1388.54 766.772L1382.03 766.194Z" fill="#6763FA"/>
<path fill-rule="evenodd" clip-rule="evenodd" d="M1400.64 728.08L1410.37 726.051L1413.42 731.565L1400.52 729.664L1400.64 728.08Z" fill="#E4A6FF"/>
<path fill-rule="evenodd" clip-rule="evenodd" d="M1425.64 721.079L1451.68 733.627L1485.41 781.522L1491.52 789.706L1540.33 817.293L1537.92 804.11L1496.95 790.364L1490.25 784.953L1484.96 777.538L1451.86 731.365L1428.1 717.196L1425 708.51L1425.64 721.079Z" fill="#E4A6FF"/>
<path fill-rule="evenodd" clip-rule="evenodd" d="M1433.63 724.929L1436.3 722.084L1442.07 725.527L1438.84 727.44L1433.63 724.929Z" fill="#6763FA"/>
<path fill-rule="evenodd" clip-rule="evenodd" d="M1440.67 727.701L1441.97 726.812L1443.76 727.744L1442.62 728.689L1440.67 727.701Z" fill="#6763FA"/>
<path fill-rule="evenodd" clip-rule="evenodd" d="M1401.81 729.216L1401.88 728.334L1408.6 726.942L1408.38 729.732L1401.81 729.216Z" fill="#6763FA"/>
<path fill-rule="evenodd" clip-rule="evenodd" d="M1408.83 730.029L1409.25 728.838L1410.91 728.883L1409.81 730.188L1408.83 730.029Z" fill="#6763FA"/>
<path fill-rule="evenodd" clip-rule="evenodd" d="M1397.18 760.672L1401.02 758.368L1400.81 761.017L1397.01 762.901L1397.18 760.672Z" fill="#6763FA"/>
<path fill-rule="evenodd" clip-rule="evenodd" d="M1397.81 764.077L1399.75 762.693L1399.61 764.561L1397.71 765.374L1397.81 764.077Z" fill="#6763FA"/>
<path fill-rule="evenodd" clip-rule="evenodd" d="M1365.13 828.025L1363.19 819.586L1368.04 817.436L1370.09 826.666L1365.13 828.025Z" fill="#6763FA"/>
<path fill-rule="evenodd" clip-rule="evenodd" d="M1364.46 817.243L1364.85 812.262L1366.01 812.174L1366.64 817.079L1364.46 817.243Z" fill="#6763FA"/>
<path fill-rule="evenodd" clip-rule="evenodd" d="M1337.01 803.145L1338.59 801.961L1343.52 808.57L1341.15 810.537L1337.01 803.145Z" fill="#6763FA"/>
<path fill-rule="evenodd" clip-rule="evenodd" d="M1341.36 810.933L1342.94 809.816L1343.36 810.576L1341.65 811.599L1341.36 810.933Z" fill="#6763FA"/>
<path fill-rule="evenodd" clip-rule="evenodd" d="M1348.92 741.707L1349.73 731.433L1337.69 737.264L1338.25 742.511L1348.92 741.707Z" fill="#6763FA"/>
<path fill-rule="evenodd" clip-rule="evenodd" d="M1345.97 743.426L1338.64 743.217L1339.33 744.44L1345.9 744.309L1345.97 743.426Z" fill="#6763FA"/>
<path fill-rule="evenodd" clip-rule="evenodd" d="M1026.42 730.336L1029.41 647.182L1026.88 643.62L1020.56 642.886L1018.74 646.894L1018.92 604.875L1011.16 602.662L988.913 611.464L954.267 711.96L951.876 715.865L966.205 654.539L964.662 651.056L965.656 644.031L962.999 642.322L956.58 649.616L953.346 650.562L929.876 690.725L927.222 691.076L905.9 734.075L1026.42 730.336Z" fill="url(#paint33_linear_204_684)"/>
<path opacity="0.5" fill-rule="evenodd" clip-rule="evenodd" d="M974.335 731.952L973.566 731.353L970.272 718.641L980.446 678.774L977.622 672.7L974.828 683.057L961.945 719.675L956.891 730.847L972.831 679.196L982.818 641.03L977.8 644.307L954.578 711.06L951.969 715.252L948.606 732.75L974.335 731.952Z" fill="#6763FA"/>
<path opacity="0.5" fill-rule="evenodd" clip-rule="evenodd" d="M940.277 732.775L942.576 700.111L957.474 650.629L953.347 658.318L943.468 684.906L946.113 684.824L944.253 687.556L940.799 692.091L938.276 693.875L944.285 676.604L936.809 678.861L929.876 690.725L924.916 701.691L907.798 734.016L940.277 732.775Z" fill="#6763FA"/>
<path fill-rule="evenodd" clip-rule="evenodd" d="M999.693 607.199L972.83 679.196L974.827 683.057L986.594 646.624L988.051 646.237L970.271 718.641L973.565 731.353L999.037 730.893L1007.72 671.709L1002.38 731.082L1026.42 730.336L1029.41 647.182L1026.88 643.62L1020.56 642.886L1012.92 685.042L1018.38 645.296L1018.92 604.874L1011.16 602.662L999.693 607.199Z" fill="url(#paint34_linear_204_684)"/>
<path fill-rule="evenodd" clip-rule="evenodd" d="M962.999 642.322L957.473 650.63L942.576 700.112L940.277 732.775L948.605 732.751L965.657 644.031L962.999 642.322Z" fill="#251369"/>
<path fill-rule="evenodd" clip-rule="evenodd" d="M956.58 649.616L940.798 692.091L938.276 693.875L953.346 650.562L956.58 649.616Z" fill="#251369"/>
<path fill-rule="evenodd" clip-rule="evenodd" d="M929.877 690.726L927.665 695.616L924.916 701.692L927.223 691.076L929.877 690.726Z" fill="#251369"/>
<path fill-rule="evenodd" clip-rule="evenodd" d="M992.067 610.216L990.697 611.914L982.018 654.569L985.067 631.688L985.187 627.158L982.853 639.675L975.617 667.457L948.605 732.75L974.402 653.554L988.913 611.464L992.067 610.216Z" fill="#E099FF" fill-opacity="0.61"/>
<path fill-rule="evenodd" clip-rule="evenodd" d="M955.565 732.534L962.966 709.97L967.105 703.92L976.646 692.684L975.603 696.927L970.299 701.205L963.44 709.841L960.028 729.422L963.527 732.287L955.565 732.534Z" fill="#E4A6FF"/>
<path fill-rule="evenodd" clip-rule="evenodd" d="M934.265 733.195L933.757 714.091L930.543 707.868L934.319 699.52L932.833 685.664L929.876 690.725L926.291 703.132L929.052 708.061L932.608 714.678L930.788 730.768L927.247 732.047L917.299 718.529L917.88 709.916L916.31 713.082L915.883 718.901L924.353 733.503L934.265 733.195Z" fill="#E4A6FF"/>
<path fill-rule="evenodd" clip-rule="evenodd" d="M932.063 713.666L930.129 717.943L924.75 727.337L924.674 728.552L926.089 730.475L926.068 726.262L930.646 717.353L932.573 714.982L932.977 714.09L932.063 713.666Z" fill="#E4A6FF"/>
<path fill-rule="evenodd" clip-rule="evenodd" d="M933.245 719.016L931.048 720.425L928.271 721.187L927.775 722.285L929.229 721.23L932.455 720.762L933.245 719.016Z" fill="#E4A6FF"/>
<path fill-rule="evenodd" clip-rule="evenodd" d="M966.573 704.698L967.754 702.087L965.918 694.478L965.17 692.712L965.556 688.385L967.571 694.962L967.981 701.587L969.382 701.905L966.573 704.698Z" fill="#E4A6FF"/>
<path fill-rule="evenodd" clip-rule="evenodd" d="M1002.84 605.953L985.498 675.052L1005.06 676.658L1012.7 629.316L1015.93 640.003L1018.46 639.05L1018.93 604.875L1011.16 602.662L1002.84 605.953Z" fill="url(#paint35_linear_204_684)"/>
<path fill-rule="evenodd" clip-rule="evenodd" d="M1002.84 605.953L985.498 675.052L1005.06 676.658L1012.7 629.316L1015.93 640.003L1018.46 639.05L1018.93 604.875L1011.16 602.662L1002.84 605.953Z" fill="url(#paint36_linear_204_684)" fill-opacity="0.2"/>
<path fill-rule="evenodd" clip-rule="evenodd" d="M991.903 681.85L989.394 698.66L1003.35 701.49L1006.2 682.085L991.903 681.85Z" fill="#6763FA"/>
<path fill-rule="evenodd" clip-rule="evenodd" d="M1011.63 674.448L1009.51 687.871L1010.86 688.213L1014.1 676.464L1016.2 676.399L1015.43 681.201L1020.37 680.967L1023.37 661.409L1017.14 661.762L1015.38 671.472L1012.71 671.554L1011.63 674.448Z" fill="#6763FA"/>
<path fill-rule="evenodd" clip-rule="evenodd" d="M1011.57 707.318L1009.95 715.742L1012.63 715.659L1014.02 707.242L1011.57 707.318Z" fill="#6763FA"/>
<path fill-rule="evenodd" clip-rule="evenodd" d="M980.215 725.617L981.808 722.095L986.601 721.497L985.709 726.226L980.215 725.617Z" fill="#6763FA"/>
<path fill-rule="evenodd" clip-rule="evenodd" d="M942.577 700.112L951.707 669.785L954.327 669.065L945.684 699.564L947.107 699.52L952.501 681.734L958.447 681.549L953.307 709.746L942.769 709.453L942.577 700.112Z" fill="url(#paint37_linear_204_684)"/>
<path fill-rule="evenodd" clip-rule="evenodd" d="M947.285 711.765L947.14 717.604L951.542 717.467L950.707 712.015L947.285 711.765Z" fill="#6763FA"/>
<path fill-rule="evenodd" clip-rule="evenodd" d="M961.447 699.074L966.881 698.473L967.904 700.358L961.206 699.607L961.447 699.074Z" fill="#E4A6FF"/>
<path fill-rule="evenodd" clip-rule="evenodd" d="M975.602 696.927L988.163 701.378L1000.95 717.811L1003.32 720.622L1026.42 730.336L1026.58 725.872L1006.16 720.89L1003.16 719.009L1001.15 716.464L988.507 700.617L977.349 695.639L976.645 692.685L975.602 696.927Z" fill="#E4A6FF"/>
<path fill-rule="evenodd" clip-rule="evenodd" d="M979.457 698.293L981.199 697.356L983.91 698.566L981.97 699.184L979.457 698.293Z" fill="#6763FA"/>
<path fill-rule="evenodd" clip-rule="evenodd" d="M982.924 699.287L983.714 698.998L984.57 699.327L983.858 699.637L982.924 699.287Z" fill="#6763FA"/>
<path fill-rule="evenodd" clip-rule="evenodd" d="M961.945 699.467L962.079 699.171L965.833 698.758L965.408 699.697L961.945 699.467Z" fill="#6763FA"/>
<path fill-rule="evenodd" clip-rule="evenodd" d="M965.615 699.801L965.971 699.403L966.855 699.432L966.124 699.863L965.615 699.801Z" fill="#6763FA"/>
<path fill-rule="evenodd" clip-rule="evenodd" d="M956.006 710.032L958.312 709.288L957.909 710.179L955.667 710.782L956.006 710.032Z" fill="#6763FA"/>
<path fill-rule="evenodd" clip-rule="evenodd" d="M955.969 711.185L957.16 710.735L956.876 711.363L955.771 711.622L955.969 711.185Z" fill="#6763FA"/>
<path fill-rule="evenodd" clip-rule="evenodd" d="M931.425 732.465L931.315 729.604L934.151 728.92L934.234 732.049L931.425 732.465Z" fill="#6763FA"/>
<path fill-rule="evenodd" clip-rule="evenodd" d="M932.253 728.824L933.011 727.148L933.643 727.129L933.439 728.787L932.253 728.824Z" fill="#6763FA"/>
<path fill-rule="evenodd" clip-rule="evenodd" d="M919.107 723.838L920.088 723.453L921.998 725.723L920.512 726.366L919.107 723.838Z" fill="#6763FA"/>
<path fill-rule="evenodd" clip-rule="evenodd" d="M920.581 726.501L921.551 726.138L921.693 726.397L920.66 726.728L920.581 726.501Z" fill="#6763FA"/>
<path fill-rule="evenodd" clip-rule="evenodd" d="M932.251 703.229L933.814 699.772L926.724 701.635L926.446 703.409L932.251 703.229Z" fill="#6763FA"/>
<path fill-rule="evenodd" clip-rule="evenodd" d="M930.481 703.783L926.581 703.65L926.816 704.068L930.346 704.08L930.481 703.783Z" fill="#6763FA"/>
<path fill-rule="evenodd" clip-rule="evenodd" d="M741.167 809.306L742.755 755.045L741.14 752.711L737.142 752.209L736.01 754.819L735.973 727.394L731.057 725.922L717.027 731.586L695.492 797.051L693.995 799.591L702.83 759.618L701.842 757.339L702.445 752.757L700.759 751.633L696.728 756.37L694.687 756.975L679.998 783.104L678.322 783.323L665 811.31L741.167 809.306Z" fill="url(#paint38_linear_204_684)"/>
<path opacity="0.5" fill-rule="evenodd" clip-rule="evenodd" d="M708.248 810.172L707.76 809.778L705.631 801.47L711.918 775.487L710.111 771.512L708.382 778.262L700.372 802.114L697.218 809.387L707.106 775.734L713.28 750.861L710.121 752.981L695.684 796.465L694.05 799.191L691.988 810.6L708.248 810.172Z" fill="#6763FA"/>
<path opacity="0.5" fill-rule="evenodd" clip-rule="evenodd" d="M686.725 810.586L688.06 789.275L697.297 757.034L694.717 762.037L688.569 779.355L690.24 779.311L689.074 781.087L686.907 784.034L685.319 785.189L689.054 773.939L684.338 775.386L679.998 783.103L676.903 790.243L666.2 811.278L686.725 810.586Z" fill="#6763FA"/>
<path fill-rule="evenodd" clip-rule="evenodd" d="M723.824 728.842L707.106 775.734L708.382 778.262L715.688 754.526L716.607 754.278L705.631 801.47L707.759 809.778L723.858 809.57L729.131 770.974L725.973 809.706L741.166 809.306L742.755 755.045L741.139 752.711L737.141 752.209L732.464 779.695L735.773 753.774L735.972 727.395L731.056 725.922L723.824 728.842Z" fill="url(#paint39_linear_204_684)"/>
<path fill-rule="evenodd" clip-rule="evenodd" d="M700.758 751.632L697.296 757.034L688.059 789.275L686.724 810.585L691.988 810.599L702.444 752.757L700.758 751.632Z" fill="#251369"/>
<path fill-rule="evenodd" clip-rule="evenodd" d="M696.729 756.37L686.907 784.035L685.319 785.19L694.688 756.976L696.729 756.37Z" fill="#251369"/>
<path fill-rule="evenodd" clip-rule="evenodd" d="M679.998 783.104L678.618 786.287L676.902 790.243L678.322 783.323L679.998 783.104Z" fill="#251369"/>
<path fill-rule="evenodd" clip-rule="evenodd" d="M719.017 730.783L718.156 731.887L712.825 759.695L714.669 744.772L714.729 741.816L713.299 749.977L708.826 768.083L691.988 810.6L708.008 759.004L717.027 731.587L719.017 730.783Z" fill="#E099FF" fill-opacity="0.61"/>
<path fill-rule="evenodd" clip-rule="evenodd" d="M696.387 810.484L700.983 795.784L703.578 791.85L709.567 784.552L708.924 787.317L705.587 790.09L701.282 795.701L699.196 808.469L701.418 810.352L696.387 810.484Z" fill="#E4A6FF"/>
<path fill-rule="evenodd" clip-rule="evenodd" d="M682.925 810.838L682.536 798.367L680.481 794.294L682.838 788.86L681.848 779.811L679.998 783.104L677.777 791.188L679.539 794.415L681.812 798.747L680.719 809.241L678.485 810.063L672.149 801.204L672.485 795.585L671.504 797.646L671.255 801.442L676.662 811.003L682.925 810.838Z" fill="#E4A6FF"/>
<path fill-rule="evenodd" clip-rule="evenodd" d="M681.464 798.084L680.257 800.868L676.891 806.98L676.847 807.773L677.749 809.033L677.72 806.284L680.581 800.485L681.791 798.945L682.043 798.365L681.464 798.084Z" fill="#E4A6FF"/>
<path fill-rule="evenodd" clip-rule="evenodd" d="M682.23 801.581L680.847 802.492L679.095 802.979L678.785 803.694L679.7 803.011L681.738 802.717L682.23 801.581Z" fill="#E4A6FF"/>
<path fill-rule="evenodd" clip-rule="evenodd" d="M703.244 792.356L703.981 790.656L702.793 785.683L702.314 784.528L702.542 781.705L703.839 786.005L704.123 790.33L705.009 790.543L703.244 792.356Z" fill="#E4A6FF"/>
<path fill-rule="evenodd" clip-rule="evenodd" d="M725.811 728.04L715.098 773.075L727.472 774.194L732.129 743.324L734.205 750.31L735.804 749.697L735.973 727.394L731.057 725.922L725.811 728.04Z" fill="url(#paint40_linear_204_684)"/>
<path fill-rule="evenodd" clip-rule="evenodd" d="M725.811 728.04L715.098 773.075L727.472 774.194L732.129 743.324L734.205 750.31L735.804 749.697L735.973 727.394L731.057 725.922L725.811 728.04Z" fill="url(#paint41_linear_204_684)" fill-opacity="0.2"/>
<path fill-rule="evenodd" clip-rule="evenodd" d="M719.172 777.535L717.646 788.497L726.478 790.395L728.207 777.74L719.172 777.535Z" fill="#6763FA"/>
<path fill-rule="evenodd" clip-rule="evenodd" d="M731.611 772.776L730.322 781.529L731.175 781.757L733.178 774.101L734.51 774.066L734.041 777.197L737.163 777.062L738.988 764.308L735.047 764.516L733.97 770.847L732.283 770.891L731.611 772.776Z" fill="#6763FA"/>
<path fill-rule="evenodd" clip-rule="evenodd" d="M731.696 794.229L730.698 799.721L732.397 799.676L733.245 794.188L731.696 794.229Z" fill="#6763FA"/>
<path fill-rule="evenodd" clip-rule="evenodd" d="M711.943 806.058L712.937 803.766L715.964 803.392L715.417 806.476L711.943 806.058Z" fill="#6763FA"/>
<path fill-rule="evenodd" clip-rule="evenodd" d="M688.059 789.276L693.72 769.516L695.374 769.055L690.021 788.929L690.921 788.906L694.266 777.317L698.023 777.218L694.876 795.602L688.215 795.373L688.059 789.276Z" fill="url(#paint42_linear_204_684)"/>
<path fill-rule="evenodd" clip-rule="evenodd" d="M691.078 796.898L691.007 800.709L693.79 800.635L693.242 797.074L691.078 796.898Z" fill="#6763FA"/>
<path fill-rule="evenodd" clip-rule="evenodd" d="M699.984 788.667L703.416 788.294L704.069 789.528L699.833 789.014L699.984 788.667Z" fill="#E4A6FF"/>
<path fill-rule="evenodd" clip-rule="evenodd" d="M708.923 787.317L716.879 790.268L725.023 801.039L726.53 802.882L741.167 809.306L741.252 806.393L728.325 803.067L726.425 801.828L725.144 800.16L717.093 789.772L710.022 786.482L709.566 784.552L708.923 787.317Z" fill="#E4A6FF"/>
<path fill-rule="evenodd" clip-rule="evenodd" d="M711.364 788.222L712.461 787.617L714.18 788.417L712.955 788.813L711.364 788.222Z" fill="#6763FA"/>
<path fill-rule="evenodd" clip-rule="evenodd" d="M713.559 788.883L714.058 788.698L714.6 788.916L714.151 789.115L713.559 788.883Z" fill="#6763FA"/>
<path fill-rule="evenodd" clip-rule="evenodd" d="M700.299 788.925L700.383 788.732L702.754 788.476L702.489 789.088L700.299 788.925Z" fill="#6763FA"/>
<path fill-rule="evenodd" clip-rule="evenodd" d="M702.621 789.156L702.844 788.898L703.403 788.92L702.942 789.199L702.621 789.156Z" fill="#6763FA"/>
<path fill-rule="evenodd" clip-rule="evenodd" d="M696.584 795.799L698.039 795.322L697.787 795.902L696.372 796.287L696.584 795.799Z" fill="#6763FA"/>
<path fill-rule="evenodd" clip-rule="evenodd" d="M696.564 796.552L697.316 796.262L697.138 796.671L696.441 796.836L696.564 796.552Z" fill="#6763FA"/>
<path fill-rule="evenodd" clip-rule="evenodd" d="M681.128 810.351L681.048 808.483L682.839 808.047L682.902 810.09L681.128 810.351Z" fill="#6763FA"/>
<path fill-rule="evenodd" clip-rule="evenodd" d="M681.638 807.978L682.111 806.887L682.511 806.877L682.388 807.958L681.638 807.978Z" fill="#6763FA"/>
<path fill-rule="evenodd" clip-rule="evenodd" d="M673.31 804.677L673.929 804.428L675.144 805.917L674.207 806.331L673.31 804.677Z" fill="#6763FA"/>
<path fill-rule="evenodd" clip-rule="evenodd" d="M674.252 806.419L674.864 806.186L674.955 806.356L674.303 806.568L674.252 806.419Z" fill="#6763FA"/>
<path fill-rule="evenodd" clip-rule="evenodd" d="M681.544 791.272L682.52 789.022L678.045 790.212L677.876 791.369L681.544 791.272Z" fill="#6763FA"/>
<path fill-rule="evenodd" clip-rule="evenodd" d="M680.427 791.628L677.962 791.527L678.112 791.801L680.343 791.821L680.427 791.628Z" fill="#6763FA"/>
<g filter="url(#filter11_f_204_684)">
<ellipse cx="958.441" cy="729.505" rx="110.065" ry="20.4195" transform="rotate(1.08748 958.441 729.505)" fill="#9780FF"/>
</g>
<g filter="url(#filter12_f_204_684)">
<ellipse cx="412.786" cy="689.5" rx="105.396" ry="21.5032" transform="rotate(1.08748 412.786 689.5)" fill="#9780FF"/>
</g>
<g filter="url(#filter13_f_204_684)">
<ellipse cx="704.786" cy="812.5" rx="105.396" ry="21.5032" transform="rotate(1.08748 704.786 812.5)" fill="#3030D9"/>
</g>
<g filter="url(#filter14_f_204_684)">
<ellipse cx="1431.14" cy="819.226" rx="149.018" ry="39.1568" transform="rotate(-3.5177 1431.14 819.226)" fill="#3131E1"/>
</g>
<g filter="url(#filter15_f_204_684)">
<ellipse cx="725.407" cy="1038.55" rx="1036.21" ry="206.678" transform="rotate(5.39462 725.407 1038.55)" fill="#13120F"/>
</g>
<g style="mix-blend-mode:screen" filter="url(#filter16_f_204_684)">
<path d="M29.2385 -88.1673L-24.6993 26.7428L581.054 889.99L847.402 259.01L29.2385 -88.1673Z" fill="url(#paint43_linear_204_684)"/>
</g>
<path d="M1127.08 392.508L1127.44 368.29L1127.8 392.508C1127.85 393.577 1128.84 394.435 1130.07 394.474L1157.94 394.79L1130.07 395.106C1128.84 395.145 1127.85 396.003 1127.8 397.073L1127.44 421.29L1127.08 397.073C1127.03 396.003 1126.04 395.145 1124.81 395.106L1096.94 394.79L1124.81 394.474C1126.04 394.435 1127.03 393.577 1127.08 392.508Z" fill="white"/>
<path d="M362.607 178.235L362.971 154.018L363.334 178.235C363.379 179.305 364.367 180.163 365.598 180.202L393.471 180.518L365.598 180.834C364.367 180.873 363.379 181.731 363.334 182.801L362.971 207.018L362.607 182.801C362.562 181.731 361.575 180.873 360.343 180.834L332.471 180.518L360.343 180.202C361.574 180.163 362.562 179.305 362.607 178.235Z" fill="white"/>
<g filter="url(#filter17_d_204_684)">
<path d="M1362.08 230.888C1362.08 232.311 1360.92 233.464 1359.5 233.464C1358.08 233.464 1356.93 232.311 1356.93 230.888C1356.93 229.465 1358.08 228.312 1359.5 228.312C1360.92 228.312 1362.08 229.465 1362.08 230.888Z" fill="url(#paint44_radial_204_684)" shape-rendering="crispEdges"/>
</g>
<g filter="url(#filter18_d_204_684)">
<path d="M1196.98 188.424C1196.98 189.847 1195.83 191 1194.41 191C1192.99 191 1191.83 189.847 1191.83 188.424C1191.83 187.001 1192.99 185.848 1194.41 185.848C1195.83 185.848 1196.98 187.001 1196.98 188.424Z" fill="url(#paint45_radial_204_684)" shape-rendering="crispEdges"/>
</g>
<g filter="url(#filter19_d_204_684)">
<path d="M414.451 454.514C414.451 455.936 413.298 457.09 411.875 457.09C410.452 457.09 409.299 455.936 409.299 454.514C409.299 453.091 410.452 451.938 411.875 451.938C413.298 451.938 414.451 453.091 414.451 454.514Z" fill="url(#paint46_radial_204_684)" shape-rendering="crispEdges"/>
</g>
<g filter="url(#filter20_d_204_684)">
<path d="M378.527 427.624C378.527 428.335 377.951 428.912 377.239 428.912C376.528 428.912 375.951 428.335 375.951 427.624C375.951 426.913 376.528 426.336 377.239 426.336C377.951 426.336 378.527 426.913 378.527 427.624Z" fill="url(#paint47_radial_204_684)" shape-rendering="crispEdges"/>
</g>
<g filter="url(#filter21_d_204_684)">
<path d="M79.0389 265.877C79.0389 266.589 78.4623 267.165 77.7509 267.165C77.0396 267.165 76.4629 266.589 76.4629 265.877C76.4629 265.166 77.0396 264.589 77.7509 264.589C78.4623 264.589 79.0389 265.166 79.0389 265.877Z" fill="url(#paint48_radial_204_684)" shape-rendering="crispEdges"/>
</g>
</g>
<defs>
<filter id="filter0_f_204_684" x="100.038" y="220.852" width="1341.57" height="1119.01" filterUnits="userSpaceOnUse" color-interpolation-filters="sRGB">
<feFlood flood-opacity="0" result="BackgroundImageFix"/>
<feBlend mode="normal" in="SourceGraphic" in2="BackgroundImageFix" result="shape"/>
<feGaussianBlur stdDeviation="92.6" result="effect1_foregroundBlur_204_684"/>
</filter>
<filter id="filter1_f_204_684" x="-1.84043" y="221.459" width="334.74" height="415.44" filterUnits="userSpaceOnUse" color-interpolation-filters="sRGB">
<feFlood flood-opacity="0" result="BackgroundImageFix"/>
<feBlend mode="normal" in="SourceGraphic" in2="BackgroundImageFix" result="shape"/>
<feGaussianBlur stdDeviation="0.45" result="effect1_foregroundBlur_204_684"/>
</filter>
<filter id="filter2_f_204_684" x="1153.89" y="302.027" width="364.505" height="343.872" filterUnits="userSpaceOnUse" color-interpolation-filters="sRGB">
<feFlood flood-opacity="0" result="BackgroundImageFix"/>
<feBlend mode="normal" in="SourceGraphic" in2="BackgroundImageFix" result="shape"/>
<feGaussianBlur stdDeviation="0.45" result="effect1_foregroundBlur_204_684"/>
</filter>
<filter id="filter3_f_204_684" x="1084.2" y="549.051" width="103.954" height="102.846" filterUnits="userSpaceOnUse" color-interpolation-filters="sRGB">
<feFlood flood-opacity="0" result="BackgroundImageFix"/>
<feBlend mode="normal" in="SourceGraphic" in2="BackgroundImageFix" result="shape"/>
<feGaussianBlur stdDeviation="0.45" result="effect1_foregroundBlur_204_684"/>
</filter>
<filter id="filter4_f_204_684" x="997.185" y="460.355" width="554.737" height="210.031" filterUnits="userSpaceOnUse" color-interpolation-filters="sRGB">
<feFlood flood-opacity="0" result="BackgroundImageFix"/>
<feBlend mode="normal" in="SourceGraphic" in2="BackgroundImageFix" result="shape"/>
<feGaussianBlur stdDeviation="6.65919" result="effect1_foregroundBlur_204_684"/>
</filter>
<filter id="filter5_f_204_684" x="-53.0518" y="452.818" width="477.104" height="210.031" filterUnits="userSpaceOnUse" color-interpolation-filters="sRGB">
<feFlood flood-opacity="0" result="BackgroundImageFix"/>
<feBlend mode="normal" in="SourceGraphic" in2="BackgroundImageFix" result="shape"/>
<feGaussianBlur stdDeviation="6.65919" result="effect1_foregroundBlur_204_684"/>
</filter>
<filter id="filter6_f_204_684" x="-170.294" y="597" width="1795.17" height="716.599" filterUnits="userSpaceOnUse" color-interpolation-filters="sRGB">
<feFlood flood-opacity="0" result="BackgroundImageFix"/>
<feBlend mode="normal" in="SourceGraphic" in2="BackgroundImageFix" result="shape"/>
<feGaussianBlur stdDeviation="17.5" result="effect1_foregroundBlur_204_684"/>
</filter>
<filter id="filter7_f_204_684" x="1005.12" y="609.033" width="520.4" height="116.616" filterUnits="userSpaceOnUse" color-interpolation-filters="sRGB">
<feFlood flood-opacity="0" result="BackgroundImageFix"/>
<feBlend mode="normal" in="SourceGraphic" in2="BackgroundImageFix" result="shape"/>
<feGaussianBlur stdDeviation="10" result="effect1_foregroundBlur_204_684"/>
</filter>
<filter id="filter8_f_204_684" x="-78.4033" y="604.917" width="520.4" height="116.616" filterUnits="userSpaceOnUse" color-interpolation-filters="sRGB">
<feFlood flood-opacity="0" result="BackgroundImageFix"/>
<feBlend mode="normal" in="SourceGraphic" in2="BackgroundImageFix" result="shape"/>
<feGaussianBlur stdDeviation="10" result="effect1_foregroundBlur_204_684"/>
</filter>
<filter id="filter9_f_204_684" x="38.4779" y="545.403" width="342.451" height="540.94" filterUnits="userSpaceOnUse" color-interpolation-filters="sRGB">
<feFlood flood-opacity="0" result="BackgroundImageFix"/>
<feBlend mode="normal" in="SourceGraphic" in2="BackgroundImageFix" result="shape"/>
<feGaussianBlur stdDeviation="0.45" result="effect1_foregroundBlur_204_684"/>
</filter>
<filter id="filter10_f_204_684" x="373.763" y="523.733" width="139.662" height="168.737" filterUnits="userSpaceOnUse" color-interpolation-filters="sRGB">
<feFlood flood-opacity="0" result="BackgroundImageFix"/>
<feBlend mode="normal" in="SourceGraphic" in2="BackgroundImageFix" result="shape"/>
<feGaussianBlur stdDeviation="0.45" result="effect1_foregroundBlur_204_684"/>
</filter>
<filter id="filter11_f_204_684" x="828.395" y="688.981" width="260.093" height="81.0479" filterUnits="userSpaceOnUse" color-interpolation-filters="sRGB">
<feFlood flood-opacity="0" result="BackgroundImageFix"/>
<feBlend mode="normal" in="SourceGraphic" in2="BackgroundImageFix" result="shape"/>
<feGaussianBlur stdDeviation="10" result="effect1_foregroundBlur_204_684"/>
</filter>
<filter id="filter12_f_204_684" x="287.407" y="647.906" width="250.757" height="83.187" filterUnits="userSpaceOnUse" color-interpolation-filters="sRGB">
<feFlood flood-opacity="0" result="BackgroundImageFix"/>
<feBlend mode="normal" in="SourceGraphic" in2="BackgroundImageFix" result="shape"/>
<feGaussianBlur stdDeviation="10" result="effect1_foregroundBlur_204_684"/>
</filter>
<filter id="filter13_f_204_684" x="579.407" y="770.906" width="250.757" height="83.187" filterUnits="userSpaceOnUse" color-interpolation-filters="sRGB">
<feFlood flood-opacity="0" result="BackgroundImageFix"/>
<feBlend mode="normal" in="SourceGraphic" in2="BackgroundImageFix" result="shape"/>
<feGaussianBlur stdDeviation="10" result="effect1_foregroundBlur_204_684"/>
</filter>
<filter id="filter14_f_204_684" x="1262.38" y="759.079" width="337.514" height="120.294" filterUnits="userSpaceOnUse" color-interpolation-filters="sRGB">
<feFlood flood-opacity="0" result="BackgroundImageFix"/>
<feBlend mode="normal" in="SourceGraphic" in2="BackgroundImageFix" result="shape"/>
<feGaussianBlur stdDeviation="10" result="effect1_foregroundBlur_204_684"/>
</filter>
<filter id="filter15_f_204_684" x="-506.401" y="610.833" width="2463.62" height="855.426" filterUnits="userSpaceOnUse" color-interpolation-filters="sRGB">
<feFlood flood-opacity="0" result="BackgroundImageFix"/>
<feBlend mode="normal" in="SourceGraphic" in2="BackgroundImageFix" result="shape"/>
<feGaussianBlur stdDeviation="100" result="effect1_foregroundBlur_204_684"/>
</filter>
<filter id="filter16_f_204_684" x="-244.501" y="-307.969" width="1311.7" height="1417.76" filterUnits="userSpaceOnUse" color-interpolation-filters="sRGB">
<feFlood flood-opacity="0" result="BackgroundImageFix"/>
<feBlend mode="normal" in="SourceGraphic" in2="BackgroundImageFix" result="shape"/>
<feGaussianBlur stdDeviation="109.901" result="effect1_foregroundBlur_204_684"/>
</filter>
<filter id="filter17_d_204_684" x="1326.93" y="207.312" width="65.1523" height="65.1521" filterUnits="userSpaceOnUse" color-interpolation-filters="sRGB">
<feFlood flood-opacity="0" result="BackgroundImageFix"/>
<feColorMatrix in="SourceAlpha" type="matrix" values="0 0 0 0 0 0 0 0 0 0 0 0 0 0 0 0 0 0 127 0" result="hardAlpha"/>
<feOffset dy="9"/>
<feGaussianBlur stdDeviation="15"/>
<feComposite in2="hardAlpha" operator="out"/>
<feColorMatrix type="matrix" values="0 0 0 0 1 0 0 0 0 1 0 0 0 0 1 0 0 0 1 0"/>
<feBlend mode="normal" in2="BackgroundImageFix" result="effect1_dropShadow_204_684"/>
<feBlend mode="normal" in="SourceGraphic" in2="effect1_dropShadow_204_684" result="shape"/>
</filter>
<filter id="filter18_d_204_684" x="1161.83" y="164.848" width="65.1523" height="65.1521" filterUnits="userSpaceOnUse" color-interpolation-filters="sRGB">
<feFlood flood-opacity="0" result="BackgroundImageFix"/>
<feColorMatrix in="SourceAlpha" type="matrix" values="0 0 0 0 0 0 0 0 0 0 0 0 0 0 0 0 0 0 127 0" result="hardAlpha"/>
<feOffset dy="9"/>
<feGaussianBlur stdDeviation="15"/>
<feComposite in2="hardAlpha" operator="out"/>
<feColorMatrix type="matrix" values="0 0 0 0 1 0 0 0 0 1 0 0 0 0 1 0 0 0 1 0"/>
<feBlend mode="normal" in2="BackgroundImageFix" result="effect1_dropShadow_204_684"/>
<feBlend mode="normal" in="SourceGraphic" in2="effect1_dropShadow_204_684" result="shape"/>
</filter>
<filter id="filter19_d_204_684" x="379.299" y="430.938" width="65.1523" height="65.1523" filterUnits="userSpaceOnUse" color-interpolation-filters="sRGB">
<feFlood flood-opacity="0" result="BackgroundImageFix"/>
<feColorMatrix in="SourceAlpha" type="matrix" values="0 0 0 0 0 0 0 0 0 0 0 0 0 0 0 0 0 0 127 0" result="hardAlpha"/>
<feOffset dy="9"/>
<feGaussianBlur stdDeviation="15"/>
<feComposite in2="hardAlpha" operator="out"/>
<feColorMatrix type="matrix" values="0 0 0 0 1 0 0 0 0 1 0 0 0 0 1 0 0 0 1 0"/>
<feBlend mode="normal" in2="BackgroundImageFix" result="effect1_dropShadow_204_684"/>
<feBlend mode="normal" in="SourceGraphic" in2="effect1_dropShadow_204_684" result="shape"/>
</filter>
<filter id="filter20_d_204_684" x="360.951" y="415.836" width="32.5762" height="32.5762" filterUnits="userSpaceOnUse" color-interpolation-filters="sRGB">
<feFlood flood-opacity="0" result="BackgroundImageFix"/>
<feColorMatrix in="SourceAlpha" type="matrix" values="0 0 0 0 0 0 0 0 0 0 0 0 0 0 0 0 0 0 127 0" result="hardAlpha"/>
<feOffset dy="4.5"/>
<feGaussianBlur stdDeviation="7.5"/>
<feComposite in2="hardAlpha" operator="out"/>
<feColorMatrix type="matrix" values="0 0 0 0 1 0 0 0 0 1 0 0 0 0 1 0 0 0 1 0"/>
<feBlend mode="normal" in2="BackgroundImageFix" result="effect1_dropShadow_204_684"/>
<feBlend mode="normal" in="SourceGraphic" in2="effect1_dropShadow_204_684" result="shape"/>
</filter>
<filter id="filter21_d_204_684" x="61.4629" y="254.089" width="32.5762" height="32.5762" filterUnits="userSpaceOnUse" color-interpolation-filters="sRGB">
<feFlood flood-opacity="0" result="BackgroundImageFix"/>
<feColorMatrix in="SourceAlpha" type="matrix" values="0 0 0 0 0 0 0 0 0 0 0 0 0 0 0 0 0 0 127 0" result="hardAlpha"/>
<feOffset dy="4.5"/>
<feGaussianBlur stdDeviation="7.5"/>
<feComposite in2="hardAlpha" operator="out"/>
<feColorMatrix type="matrix" values="0 0 0 0 1 0 0 0 0 1 0 0 0 0 1 0 0 0 1 0"/>
<feBlend mode="normal" in2="BackgroundImageFix" result="effect1_dropShadow_204_684"/>
<feBlend mode="normal" in="SourceGraphic" in2="effect1_dropShadow_204_684" result="shape"/>
</filter>
<linearGradient id="paint0_linear_204_684" x1="165.529" y1="630.825" x2="178.263" y2="221.175" gradientUnits="userSpaceOnUse">
<stop stop-color="#6763FA"/>
<stop offset="1" stop-color="#050923"/>
</linearGradient>
<linearGradient id="paint1_linear_204_684" x1="127.271" y1="219.59" x2="114.537" y2="629.239" gradientUnits="userSpaceOnUse">
<stop stop-color="#5B4A9F"/>
<stop offset="1" stop-color="#251369"/>
</linearGradient>
<linearGradient id="paint2_linear_204_684" x1="187.582" y1="221.464" x2="180.248" y2="457.401" gradientUnits="userSpaceOnUse">
<stop stop-color="#B9B7FF"/>
<stop offset="1" stop-color="#3D3B94"/>
</linearGradient>
<linearGradient id="paint3_linear_204_684" x1="103.182" y1="336.923" x2="160.517" y2="206.88" gradientUnits="userSpaceOnUse">
<stop stop-color="#FD84FF" stop-opacity="0.12"/>
<stop offset="1" stop-color="#FD84FF"/>
</linearGradient>
<linearGradient id="paint4_linear_204_684" x1="263.888" y1="430.668" x2="259.849" y2="560.612" gradientUnits="userSpaceOnUse">
<stop stop-color="#B5B3FF"/>
<stop offset="1" stop-color="#3D3B94"/>
</linearGradient>
<linearGradient id="paint5_linear_204_684" x1="1336.15" y1="639.362" x2="1325.65" y2="301.637" gradientUnits="userSpaceOnUse">
<stop stop-color="#6763FA"/>
<stop offset="1" stop-color="#050923"/>
</linearGradient>
<linearGradient id="paint6_linear_204_684" x1="1381.2" y1="299.911" x2="1391.7" y2="637.635" gradientUnits="userSpaceOnUse">
<stop stop-color="#5B4A9F"/>
<stop offset="1" stop-color="#251369"/>
</linearGradient>
<linearGradient id="paint7_linear_204_684" x1="1315.5" y1="301.953" x2="1321.54" y2="496.464" gradientUnits="userSpaceOnUse">
<stop stop-color="#B9B7FF"/>
<stop offset="1" stop-color="#3D3B94"/>
</linearGradient>
<linearGradient id="paint8_linear_204_684" x1="1406.47" y1="396.475" x2="1367.54" y2="282.065" gradientUnits="userSpaceOnUse">
<stop stop-color="#FD84FF" stop-opacity="0.12"/>
<stop offset="1" stop-color="#FD84FF"/>
</linearGradient>
<linearGradient id="paint9_linear_204_684" x1="1230.67" y1="475.107" x2="1234" y2="582.235" gradientUnits="userSpaceOnUse">
<stop stop-color="#B5B3FF"/>
<stop offset="1" stop-color="#3D3B94"/>
</linearGradient>
<linearGradient id="paint10_linear_204_684" x1="1136.18" y1="649.409" x2="1133.08" y2="549.588" gradientUnits="userSpaceOnUse">
<stop stop-color="#6763FA"/>
<stop offset="1" stop-color="#050923"/>
</linearGradient>
<linearGradient id="paint11_linear_204_684" x1="1148.72" y1="549.101" x2="1151.83" y2="648.923" gradientUnits="userSpaceOnUse">
<stop stop-color="#5B4A9F"/>
<stop offset="1" stop-color="#251369"/>
</linearGradient>
<linearGradient id="paint12_linear_204_684" x1="1130.22" y1="549.676" x2="1132" y2="607.168" gradientUnits="userSpaceOnUse">
<stop stop-color="#B9B7FF"/>
<stop offset="1" stop-color="#3D3B94"/>
</linearGradient>
<linearGradient id="paint13_linear_204_684" x1="1155.88" y1="577.652" x2="1143.96" y2="544.143" gradientUnits="userSpaceOnUse">
<stop stop-color="#FD84FF" stop-opacity="0.12"/>
<stop offset="1" stop-color="#FD84FF"/>
</linearGradient>
<linearGradient id="paint14_linear_204_684" x1="1106.4" y1="600.817" x2="1107.38" y2="632.481" gradientUnits="userSpaceOnUse">
<stop stop-color="#B5B3FF"/>
<stop offset="1" stop-color="#3D3B94"/>
</linearGradient>
<linearGradient id="paint15_linear_204_684" x1="1267.61" y1="668.338" x2="1475.31" y2="388.301" gradientUnits="userSpaceOnUse">
<stop stop-color="#E4A6FF"/>
<stop offset="1" stop-color="#E4A6FF" stop-opacity="0"/>
</linearGradient>
<linearGradient id="paint16_linear_204_684" x1="191.515" y1="661.097" x2="-23.6339" y2="413.61" gradientUnits="userSpaceOnUse">
<stop stop-color="#E4A6FF"/>
<stop offset="1" stop-color="#E4A6FF" stop-opacity="0"/>
</linearGradient>
<linearGradient id="paint17_linear_204_684" x1="868.926" y1="723.704" x2="878.898" y2="1303.14" gradientUnits="userSpaceOnUse">
<stop offset="0.0239996" stop-color="#9277FF"/>
<stop offset="0.119" stop-color="#302BCE"/>
<stop offset="1" stop-color="#302BCE" stop-opacity="0"/>
</linearGradient>
<linearGradient id="paint18_linear_204_684" x1="209.704" y1="1038.36" x2="76.6739" y2="557.079" gradientUnits="userSpaceOnUse">
<stop stop-color="#6763FA"/>
<stop offset="1" stop-color="#050923"/>
</linearGradient>
<linearGradient id="paint19_linear_204_684" x1="24.4991" y1="571.501" x2="157.529" y2="1052.79" gradientUnits="userSpaceOnUse">
<stop stop-color="#5B4A9F"/>
<stop offset="1" stop-color="#251369"/>
</linearGradient>
<linearGradient id="paint20_linear_204_684" x1="86.2081" y1="554.444" x2="162.826" y2="831.639" gradientUnits="userSpaceOnUse">
<stop stop-color="#B9B7FF"/>
<stop offset="1" stop-color="#3D3B94"/>
</linearGradient>
<linearGradient id="paint21_linear_204_684" x1="41.9146" y1="715.873" x2="69.7285" y2="548.77" gradientUnits="userSpaceOnUse">
<stop stop-color="#FD84FF" stop-opacity="0.12"/>
<stop offset="1" stop-color="#FD84FF"/>
</linearGradient>
<linearGradient id="paint22_linear_204_684" x1="237.954" y1="773.814" x2="280.152" y2="926.481" gradientUnits="userSpaceOnUse">
<stop stop-color="#B5B3FF"/>
<stop offset="1" stop-color="#3D3B94"/>
</linearGradient>
<linearGradient id="paint23_linear_204_684" x1="443.594" y1="689.428" x2="448.732" y2="524.142" gradientUnits="userSpaceOnUse">
<stop stop-color="#6763FA"/>
<stop offset="1" stop-color="#050923"/>
</linearGradient>
<linearGradient id="paint24_linear_204_684" x1="427.617" y1="523.486" x2="422.479" y2="688.771" gradientUnits="userSpaceOnUse">
<stop stop-color="#5B4A9F"/>
<stop offset="1" stop-color="#251369"/>
</linearGradient>
<linearGradient id="paint25_linear_204_684" x1="452.591" y1="524.263" x2="449.631" y2="619.458" gradientUnits="userSpaceOnUse">
<stop stop-color="#B9B7FF"/>
<stop offset="1" stop-color="#3D3B94"/>
</linearGradient>
<linearGradient id="paint26_linear_204_684" x1="417.682" y1="570.821" x2="440.427" y2="517.96" gradientUnits="userSpaceOnUse">
<stop stop-color="#FD84FF" stop-opacity="0.12"/>
<stop offset="1" stop-color="#FD84FF"/>
</linearGradient>
<linearGradient id="paint27_linear_204_684" x1="484.255" y1="608.699" x2="482.625" y2="661.129" gradientUnits="userSpaceOnUse">
<stop stop-color="#B5B3FF"/>
<stop offset="1" stop-color="#3D3B94"/>
</linearGradient>
<linearGradient id="paint28_linear_204_684" x1="1429.51" y1="825.633" x2="1400.77" y2="443.766" gradientUnits="userSpaceOnUse">
<stop stop-color="#6763FA"/>
<stop offset="1" stop-color="#050923"/>
</linearGradient>
<linearGradient id="paint29_linear_204_684" x1="1493.82" y1="436.763" x2="1522.56" y2="818.63" gradientUnits="userSpaceOnUse">
<stop stop-color="#5B4A9F"/>
<stop offset="1" stop-color="#251369"/>
</linearGradient>
<linearGradient id="paint30_linear_204_684" x1="1453.67" y1="439.785" x2="1470.22" y2="659.721" gradientUnits="userSpaceOnUse">
<stop stop-color="#B9B7FF"/>
<stop offset="1" stop-color="#3D3B94"/>
</linearGradient>
<linearGradient id="paint31_linear_204_684" x1="1498.67" y1="546.989" x2="1437.11" y2="447.703" gradientUnits="userSpaceOnUse">
<stop stop-color="#FD84FF" stop-opacity="0.12"/>
<stop offset="1" stop-color="#FD84FF"/>
</linearGradient>
<linearGradient id="paint32_linear_204_684" x1="1383.28" y1="638.793" x2="1392.39" y2="759.924" gradientUnits="userSpaceOnUse">
<stop stop-color="#B5B3FF"/>
<stop offset="1" stop-color="#3D3B94"/>
</linearGradient>
<linearGradient id="paint33_linear_204_684" x1="966.162" y1="732.206" x2="962.19" y2="604.181" gradientUnits="userSpaceOnUse">
<stop stop-color="#6763FA"/>
<stop offset="1" stop-color="#050923"/>
</linearGradient>
<linearGradient id="paint34_linear_204_684" x1="1043.41" y1="601.661" x2="1047.39" y2="729.686" gradientUnits="userSpaceOnUse">
<stop stop-color="#5B4A9F"/>
<stop offset="1" stop-color="#251369"/>
</linearGradient>
<linearGradient id="paint35_linear_204_684" x1="1021.58" y1="602.339" x2="1023.87" y2="676.074" gradientUnits="userSpaceOnUse">
<stop stop-color="#B9B7FF"/>
<stop offset="1" stop-color="#3D3B94"/>
</linearGradient>
<linearGradient id="paint36_linear_204_684" x1="1033.87" y1="638.861" x2="1021.52" y2="601.654" gradientUnits="userSpaceOnUse">
<stop stop-color="#FD84FF" stop-opacity="0.12"/>
<stop offset="1" stop-color="#FD84FF"/>
</linearGradient>
<linearGradient id="paint37_linear_204_684" x1="961.978" y1="668.828" x2="963.238" y2="709.438" gradientUnits="userSpaceOnUse">
<stop stop-color="#B5B3FF"/>
<stop offset="1" stop-color="#3D3B94"/>
</linearGradient>
<linearGradient id="paint38_linear_204_684" x1="703.084" y1="810.308" x2="700.884" y2="726.716" gradientUnits="userSpaceOnUse">
<stop stop-color="#6763FA"/>
<stop offset="1" stop-color="#050923"/>
</linearGradient>
<linearGradient id="paint39_linear_204_684" x1="751.439" y1="725.386" x2="753.638" y2="808.978" gradientUnits="userSpaceOnUse">
<stop stop-color="#5B4A9F"/>
<stop offset="1" stop-color="#251369"/>
</linearGradient>
<linearGradient id="paint40_linear_204_684" x1="737.642" y1="725.749" x2="738.908" y2="773.893" gradientUnits="userSpaceOnUse">
<stop stop-color="#B9B7FF"/>
<stop offset="1" stop-color="#3D3B94"/>
</linearGradient>
<linearGradient id="paint41_linear_204_684" x1="745.545" y1="749.63" x2="737.354" y2="725.385" gradientUnits="userSpaceOnUse">
<stop stop-color="#FD84FF" stop-opacity="0.12"/>
<stop offset="1" stop-color="#FD84FF"/>
</linearGradient>
<linearGradient id="paint42_linear_204_684" x1="700.209" y1="768.928" x2="700.907" y2="795.444" gradientUnits="userSpaceOnUse">
<stop stop-color="#B5B3FF"/>
<stop offset="1" stop-color="#3D3B94"/>
</linearGradient>
<linearGradient id="paint43_linear_204_684" x1="-25.2572" y1="-37.0555" x2="825.826" y2="362.436" gradientUnits="userSpaceOnUse">
<stop offset="0.0139996" stop-color="#FD84FF"/>
<stop offset="0.164" stop-color="#6763FA"/>
<stop offset="1" stop-color="#251369" stop-opacity="0"/>
</linearGradient>
<radialGradient id="paint44_radial_204_684" cx="0" cy="0" r="1" gradientUnits="userSpaceOnUse" gradientTransform="translate(1359.5 230.888) rotate(90) scale(2.57605)">
<stop stop-color="white"/>
<stop offset="1" stop-color="white" stop-opacity="0"/>
</radialGradient>
<radialGradient id="paint45_radial_204_684" cx="0" cy="0" r="1" gradientUnits="userSpaceOnUse" gradientTransform="translate(1194.41 188.424) rotate(90) scale(2.57605)">
<stop stop-color="white"/>
<stop offset="1" stop-color="white" stop-opacity="0"/>
</radialGradient>
<radialGradient id="paint46_radial_204_684" cx="0" cy="0" r="1" gradientUnits="userSpaceOnUse" gradientTransform="translate(411.875 454.514) rotate(90) scale(2.57605)">
<stop stop-color="white"/>
<stop offset="1" stop-color="white" stop-opacity="0"/>
</radialGradient>
<radialGradient id="paint47_radial_204_684" cx="0" cy="0" r="1" gradientUnits="userSpaceOnUse" gradientTransform="translate(377.239 427.624) rotate(90) scale(1.28802)">
<stop stop-color="white"/>
<stop offset="1" stop-color="white" stop-opacity="0"/>
</radialGradient>
<radialGradient id="paint48_radial_204_684" cx="0" cy="0" r="1" gradientUnits="userSpaceOnUse" gradientTransform="translate(77.7509 265.877) rotate(90) scale(1.28802)">
<stop stop-color="white"/>
<stop offset="1" stop-color="white" stop-opacity="0"/>
</radialGradient>
<clipPath id="clip0_204_684">
<rect width="1512" height="982" fill="white"/>
</clipPath>
</defs>
</svg>
